<?xml version="1.0" standalone="no"?><!DOCTYPE svg PUBLIC "-//W3C//DTD SVG 1.1//EN" "http://www.w3.org/Graphics/SVG/1.1/DTD/svg11.dtd"><svg t="1781254880522" class="icon" viewBox="0 0 1024 1024" version="1.1" xmlns="http://www.w3.org/2000/svg" p-id="7018" xmlns:xlink="http://www.w3.org/1999/xlink" width="200" height="200"><path d="M427.8 387.3H264.6c-8.8 0-16-7.2-16-16s7.2-16 16-16h163.2c8.8 0 16 7.2 16 16s-7.2 16-16 16zM501.8 583.6H264.6c-8.8 0-16-7.2-16-16s7.2-16 16-16h237.2c8.8 0 16 7.2 16 16s-7.2 16-16 16zM614.8 779.9H264.6c-8.8 0-16-7.2-16-16s7.2-16 16-16h350.2c8.8 0 16 7.2 16 16s-7.2 16-16 16zM688.2 486.2c-8.8 0-17.3-2.7-24.5-7.9l-80.6-58c-18.8-13.5-23.1-39.8-9.5-58.5l164-227.9c7.9-10.9 20.6-17.4 34.1-17.4 8.8 0 17.3 2.7 24.5 7.9l80.6 58c18.8 13.5 23.1 39.8 9.5 58.5l-164 227.9c-7.9 10.9-20.6 17.4-34.1 17.4z m83.5-337.7c-3.2 0-6.2 1.5-8.1 4.1l-164 227.9c-3.2 4.4-2.2 10.7 2.3 13.9l80.6 58c2.2 1.5 4.3 1.9 5.8 1.9 3.2 0 6.2-1.5 8.1-4.1l164-227.9c3.2-4.4 2.2-10.7-2.3-13.9l-80.6-58c-2.2-1.6-4.4-1.9-5.8-1.9z" fill="" p-id="7019"></path><path d="M565 548.2c-3.3 0-6.6-1-9.3-3-4.6-3.3-7.2-8.9-6.6-14.6L562.9 390c0.6-5.7 4.1-10.6 9.3-13 5.2-2.4 11.3-1.8 15.9 1.6L703 460.9c4.6 3.3 7.2 8.9 6.6 14.6-0.6 5.7-4.1 10.6-9.3 13l-128.7 58.4c-2.1 0.9-4.4 1.3-6.6 1.3z m27-127.5l-8.4 85.5 78.2-35.5-69.8-50zM830.1 294.5c-3.2 0-6.5-1-9.3-3l-107.5-77.3c-7.2-5.2-8.8-15.2-3.6-22.3 5.2-7.2 15.2-8.8 22.3-3.6l107.5 77.3c7.2 5.2 8.8 15.2 3.6 22.3-3.2 4.3-8.1 6.6-13 6.6z" fill="" p-id="7020"></path><path d="M756.1 550.3V864c0 6.5-5.3 11.7-11.7 11.7h-544c-6.5 0-11.7-5.3-11.7-11.7V192c0-6.5 5.3-11.7 11.7-11.7h426c8.8 0 16-7.2 16-16s-7.2-16-16-16h-426c-24.2 0-43.7 19.6-43.7 43.7v672c0 24.2 19.6 43.7 43.7 43.7h544c24.2 0 43.7-19.6 43.7-43.7V550.3c0-8.8-7.2-16-16-16s-16 7.1-16 16z" fill="" p-id="7021"></path></svg>