<?xml version="1.0" standalone="no"?><!DOCTYPE svg PUBLIC "-//W3C//DTD SVG 1.1//EN" "http://www.w3.org/Graphics/SVG/1.1/DTD/svg11.dtd"><svg t="1781255371652" class="icon" viewBox="0 0 1024 1024" version="1.1" xmlns="http://www.w3.org/2000/svg" p-id="39844" xmlns:xlink="http://www.w3.org/1999/xlink" width="200" height="200"><path d="M363.459765 354.665412c16.564706 0 28.310588 7.228235 35.237647 21.684706l114.748235 233.59247 114.748235-233.532235c6.927059-14.456471 18.672941-21.684706 35.237647-21.684706h1.807059c9.637647 0 17.046588 2.529882 22.166588 7.649882 5.059765 5.12 7.649882 12.528941 7.649883 22.166589v275.094588c0 9.637647-2.590118 16.986353-7.649883 22.106353-5.12 5.12-12.589176 7.710118-22.226823 7.710117h-0.843294c-9.637647 0-16.986353-2.590118-22.106353-7.710117-5.12-5.12-7.710118-12.468706-7.710118-22.106353V487.062588l-90.352941 183.838118a32.225882 32.225882 0 0 1-11.745882 14.034823 33.731765 33.731765 0 0 1-18.070589 4.517647h-1.807058a33.731765 33.731765 0 0 1-18.070589-4.517647 32.225882 32.225882 0 0 1-11.745882-14.034823l-90.352941-183.838118v172.574118c0 9.637647-2.590118 16.986353-7.710118 22.106353-5.12 5.12-12.468706 7.710118-22.106353 7.710117h-0.903529c-9.637647 0-17.046588-2.590118-22.166588-7.710117-5.12-5.12-7.649882-12.468706-7.649883-22.106353V384.542118c0-9.637647 2.409412-17.046588 7.228236-22.166589 4.818824-5.12 11.745882-7.710118 20.781176-7.710117h3.614118z" p-id="39845"></path><path d="M589.101176 114.567529c42.104471 0 82.221176 17.588706 110.772706 48.489412l103.363765 112.037647c25.660235 27.828706 39.875765 64.271059 39.936 102.098824v388.818823a150.588235 150.588235 0 0 1-150.588235 150.588236h-361.411765a150.588235 150.588235 0 0 1-150.588235-150.588236V265.155765a150.588235 150.588235 0 0 1 150.588235-150.588236H589.101176z m-257.927529 60.235295a90.352941 90.352941 0 0 0-90.352941 90.352941v500.916706a90.352941 90.352941 0 0 0 90.352941 90.352941h361.411765a90.352941 90.352941 0 0 0 90.352941-90.352941V377.133176a90.352941 90.352941 0 0 0-23.973647-61.199058l-103.424-112.037647a90.352941 90.352941 0 0 0-66.379294-29.153883H331.173647z" p-id="39846"></path></svg>