<?xml version="1.0" standalone="no"?><!DOCTYPE svg PUBLIC "-//W3C//DTD SVG 1.1//EN" "http://www.w3.org/Graphics/SVG/1.1/DTD/svg11.dtd"><svg t="1781255821364" class="icon" viewBox="0 0 1024 1024" version="1.1" xmlns="http://www.w3.org/2000/svg" p-id="60294" xmlns:xlink="http://www.w3.org/1999/xlink" width="200" height="200"><path d="M294.3488 555.4688h174.08c24.064 0 43.52 19.5072 43.52 43.52 0 24.064-19.5072 43.52-43.52 43.52h-174.08c-24.064 0-43.52-19.5072-43.52-43.52 0-24.064 19.5072-43.52 43.52-43.52z m0-217.6512H729.6c24.064 0 43.52 19.5072 43.52 43.52s-19.5072 43.52-43.52 43.52H294.3488c-24.064 0-43.52-19.5072-43.52-43.52s19.5072-43.52 43.52-43.52z m297.8816 445.184c10.8032-6.5024 23.1936-9.9328 35.84-9.9328h166.8608c72.1408 0 130.56-58.4704 130.56-130.56V294.2976c0-72.1408-58.4704-130.56-130.56-130.56H229.0688c-72.1408 0-130.56 58.4704-130.56 130.56v348.2112c0 72.1408 58.4704 130.56 130.56 130.56h147.968c38.4512 0 69.632 31.1808 69.632 69.632v27.5968l145.5616-87.296z m-363.1616 77.1072c-120.2176 0-217.6512-97.4336-217.6512-217.6512v-348.16c0-120.2176 97.4336-217.6512 217.6512-217.6512h565.8112c120.2176 0 217.6512 97.4336 217.6512 217.6512v348.2112c0 120.2176-97.4336 217.6512-217.6512 217.6512H632.832l-167.7312 100.6592c-32.9728 19.7632-75.776 9.1136-95.5392-23.9104-6.5024-10.8032-9.9328-23.1936-9.9328-35.84V860.16h-130.56z" fill="#21ABFF" p-id="60295"></path></svg>