<?xml version="1.0" standalone="no"?><!DOCTYPE svg PUBLIC "-//W3C//DTD SVG 1.1//EN" "http://www.w3.org/Graphics/SVG/1.1/DTD/svg11.dtd"><svg t="1781255233070" class="icon" viewBox="0 0 1024 1024" version="1.1" xmlns="http://www.w3.org/2000/svg" p-id="30488" xmlns:xlink="http://www.w3.org/1999/xlink" width="200" height="200"><path d="M394.296 192q-76.428 0-141.16 31.976-64.731 31.196-102.946 87.348t-38.215 120.883q0 112.304 113.083 191.073-9.359 28.076-28.076 85.008 24.177-12.478 98.266-49.913 70.97 14.038 99.046 14.037 9.359 0 26.516-0.78-8.579-29.636-8.579-59.272 0-92.806 69.41-158.318 70.19-65.511 170.796-65.511 15.597 0 27.296 2.34-18.717-85.788-99.826-141.94-81.109-56.932-185.614-56.932zM299.149 383.073q-14.037 0-24.177-10.918-10.139-10.139-10.139-24.177 0-14.818 10.139-24.957 10.139-10.139 24.177-10.139 14.818 0 24.957 10.139 10.139 10.139 10.139 24.957 0 14.037-10.139 24.177-10.139 10.918-24.957 10.918zM498.021 383.073q-14.037 0-24.177-10.918-10.139-10.139-10.139-24.177 0-14.818 10.139-24.957 10.139-10.139 24.177-10.139 14.818 0 24.957 10.139 10.139 10.139 10.139 24.957 0 14.037-10.139 24.177-10.139 10.918-24.957 10.918zM910.584 609.242q0-55.372-33.535-102.946-33.535-47.573-88.908-74.871-54.592-27.296-117.764-27.296-99.827 0-170.016 60.052-70.19 60.052-70.19 145.060 0 85.008 70.19 145.060 70.19 60.052 170.016 60.052 28.076 0 85.008-14.038 25.736 14.037 77.989 42.115-5.459-17.938-21.057-70.19 98.266-74.871 98.266-162.997zM596.289 573.367q-11.698 0-19.497-7.799-8.579-8.579-8.579-20.277 0-11.698 8.579-20.277 7.799-7.799 19.497-7.799 11.698 0 19.497 7.799 8.579 8.579 8.579 20.277 0 11.698-8.579 20.277t-19.497 7.799zM749.926 573.367q-11.698 0-20.277-7.799-8.579-8.579-8.579-20.277 0-11.698 8.579-20.277 8.579-7.799 19.497-7.799 11.698 0 20.277 7.799 8.579 8.579 8.579 20.277 0 11.698-7.799 20.277-8.579 7.799-20.277 7.799z" p-id="30489"></path></svg>