<?xml version="1.0" standalone="no"?><!DOCTYPE svg PUBLIC "-//W3C//DTD SVG 1.1//EN" "http://www.w3.org/Graphics/SVG/1.1/DTD/svg11.dtd"><svg t="1781255343949" class="icon" viewBox="0 0 1024 1024" version="1.1" xmlns="http://www.w3.org/2000/svg" p-id="37724" xmlns:xlink="http://www.w3.org/1999/xlink" width="200" height="200"><path d="M608 0c12.736 0 24.96 5.12 33.92 14.08l278.4 278.4c8.96 8.96 14.08 21.12 14.08 33.92v428.8c0 37.376 0 68.224-2.048 93.44-2.112 26.176-6.72 50.368-18.368 73.152-17.92 35.2-46.592 63.872-81.792 81.856-22.784 11.584-47.04 16.128-73.216 18.304-25.152 2.048-56.064 2.048-93.376 2.048H364.8c-37.376 0-68.224 0-93.44-2.048-26.176-2.176-50.368-6.72-73.152-18.304a187.264 187.264 0 0 1-81.856-81.856c-11.584-22.784-16.128-46.976-18.304-73.152-2.048-25.216-2.048-56.064-2.048-93.44V268.8c0-37.376 0-68.224 2.048-93.44 2.176-26.176 6.72-50.368 18.304-73.152 17.92-35.2 46.592-63.872 81.856-81.856C220.992 8.768 245.12 4.224 271.36 2.048 296.576 0 327.424 0 364.8 0h243.2zM366.72 96c-39.744 0-66.752 0-87.552 1.728-20.224 1.664-30.336 4.672-37.376 8.192a91.264 91.264 0 0 0-39.872 39.872c-3.52 7.04-6.528 17.152-8.192 37.376C192.064 203.968 192 231.04 192 270.72v482.56c0 39.744 0 66.752 1.728 87.552 1.664 20.224 4.672 30.336 8.192 37.376 8.768 17.152 22.72 31.104 39.872 39.872 7.04 3.52 17.152 6.528 37.376 8.192 20.8 1.664 47.808 1.728 87.552 1.728h296.96c39.744 0 66.688 0 87.488-1.728 20.288-1.664 30.464-4.672 37.44-8.192 17.152-8.768 31.104-22.72 39.808-39.872 3.584-7.04 6.592-17.152 8.32-37.376 1.664-20.8 1.664-47.808 1.664-87.552V374.4h-157.632c-11.712 0-23.168 0-32.896-0.768a95.552 95.552 0 0 1-36.288-9.536 94.464 94.464 0 0 1-41.28-41.216c-6.528-12.8-8.64-25.6-9.472-36.288a426.304 426.304 0 0 1-0.832-32.896V96H366.72z m29.952 345.6l36.032 225.536 38.272-225.536h82.048l38.272 225.536 36.032-225.536h84.48l-69.632 358.144H548.352L512 578.944l-36.352 220.8H381.824L312.256 441.6h84.48z m259.328-189.44c0 13.184 0 20.544 0.448 25.856 5.248 0.384 12.672 0.384 25.792 0.384h88.32l-114.56-114.56v88.32z" p-id="37725"></path></svg>