<?xml version="1.0" standalone="no"?><!DOCTYPE svg PUBLIC "-//W3C//DTD SVG 1.1//EN" "http://www.w3.org/Graphics/SVG/1.1/DTD/svg11.dtd"><svg t="1781255151754" class="icon" viewBox="0 0 1024 1024" version="1.1" xmlns="http://www.w3.org/2000/svg" p-id="26152" xmlns:xlink="http://www.w3.org/1999/xlink" width="200" height="200"><path d="M650 815.333V818c0 76.248-61.777 138.072-138 138.072S374 894.248 374 818v-2.667H234V815h-75c-12.15 0-22-9.85-22-22s9.85-22 22-22h75V442.5c0-137.85 100.154-252.309 231.665-274.579A47.312 47.312 0 0 1 465 160v-46c0-25.957 21.043-47 47-47s47 21.043 47 47v46c0 2.643-0.218 5.234-0.637 7.758C690.353 189.628 791 304.31 791 442.5V771h74c12.15 0 22 9.85 22 22s-9.85 22-22 22h-74v0.333H650zM747 771V442.5C747 312.99 642.01 208 512.5 208S278 312.99 278 442.5V771h469z m-329 47c0 51.955 42.085 94.072 94 94.072s94-42.117 94-94.072H418z" fill="#5C5F66" p-id="26153"></path></svg>