<?xml version="1.0" standalone="no"?><!DOCTYPE svg PUBLIC "-//W3C//DTD SVG 1.1//EN" "http://www.w3.org/Graphics/SVG/1.1/DTD/svg11.dtd"><svg t="1781255760056" class="icon" viewBox="0 0 1024 1024" version="1.1" xmlns="http://www.w3.org/2000/svg" p-id="57319" xmlns:xlink="http://www.w3.org/1999/xlink" width="200" height="200"><path d="M496 768h-142.144l-110.496 117.888A32 32 0 0 1 188 864v-96H96a32 32 0 0 1-32-32V160a32 32 0 0 1 32-32h768a32 32 0 0 1 32 32v400h-64V192H128v512h92a32 32 0 0 1 32 32v47.072l64.64-68.96a32 32 0 0 1 23.36-10.112H496v64z m-249.856-185.856a7.264 7.264 0 0 0 6.784 9.856H313.92a7.264 7.264 0 0 0 6.88-4.96l21.12-63.392a7.264 7.264 0 0 1 6.912-4.992h110.208c3.104 0 5.888 1.984 6.88 4.96l21.504 63.456a7.264 7.264 0 0 0 6.912 4.928h61.44a7.264 7.264 0 0 0 6.848-9.824l-113.76-305.44a7.264 7.264 0 0 0-6.816-4.736H368.96a7.264 7.264 0 0 0-6.784 4.704l-116 305.44zM608 279.264v305.472c0 4 3.264 7.264 7.264 7.264h56.192a7.264 7.264 0 0 0 7.264-7.264V279.264a7.264 7.264 0 0 0-7.264-7.264h-56.192a7.264 7.264 0 0 0-7.264 7.264z m-245.76 177.12l34.656-102.144q4.352-12.608 5.696-26.144a1.056 1.056 0 0 1 1.056-0.96c0.544 0 0.992 0.448 1.056 0.992q1.504 16.672 5.056 26.944l34.432 101.312c1.6 4.704-1.92 9.6-6.88 9.6h-68.192a7.264 7.264 0 0 1-6.912-9.6z m375.808 119.968c1.728 0.608 3.072 1.92 3.712 3.68l38.848 107.584c0.64 1.728 1.984 3.072 3.712 3.712l107.584 38.848a6.144 6.144 0 0 1 0 11.552l-107.584 38.88a6.144 6.144 0 0 0-3.712 3.68l-38.848 107.616a6.144 6.144 0 0 1-11.584 0l-38.848-107.616a6.144 6.144 0 0 0-3.712-3.68l-107.584-38.88a6.144 6.144 0 0 1 0-11.552l107.584-38.848a6.144 6.144 0 0 0 3.712-3.712l38.848-107.584c1.184-3.2 4.704-4.8 7.872-3.68z" p-id="57320"></path></svg>