<?xml version="1.0" standalone="no"?><!DOCTYPE svg PUBLIC "-//W3C//DTD SVG 1.1//EN" "http://www.w3.org/Graphics/SVG/1.1/DTD/svg11.dtd"><svg t="1781255275060" class="icon" viewBox="0 0 1024 1024" version="1.1" xmlns="http://www.w3.org/2000/svg" p-id="32562" xmlns:xlink="http://www.w3.org/1999/xlink" width="200" height="200"><path d="M111.36 980.650667c-35.712-0.853333-62.72-22.357333-65.706667-57.941334-1.706667-21.333333-2.986667-50.602667-2.986666-90.709333s1.28-69.376 2.986666-90.709333c2.986667-35.584 29.994667-57.045333 65.706667-57.941334 15.573333-0.426667 35.114667-0.682667 59.306667-0.682666s43.733333 0.256 59.306666 0.682666c35.712 0.853333 62.72 22.357333 65.706667 57.941334 1.706667 21.333333 2.986667 50.602667 2.986667 90.709333s-1.28 69.376-2.986667 90.709333c-2.986667 35.584-29.994667 57.045333-65.706667 57.941334-15.573333 0.426667-35.114667 0.682667-59.306666 0.682666s-43.733333-0.256-59.306667-0.682666zM804.096 980.48c-41.6-1.706667-70.784-30.890667-73.472-72.448C727.893333 864.981333 725.333333 795.050667 725.333333 682.666667s2.517333-182.314667 5.290667-225.365334c2.730667-41.557333 31.872-70.784 73.472-72.405333C817.792 384.341333 834.090667 384 853.333333 384c19.242667 0 35.541333 0.341333 49.237334 0.853333 41.6 1.706667 70.784 30.890667 73.472 72.448C978.773333 500.352 981.333333 570.282667 981.333333 682.666667s-2.517333 182.314667-5.290666 225.365333c-2.730667 41.557333-31.872 70.784-73.472 72.405333-13.696 0.554667-29.994667 0.896-49.237334 0.896-19.242667 0-35.541333-0.341333-49.237333-0.853333zM459.818667 980.608c-39.850667-1.194667-68.906667-27.349333-71.765334-67.114667C385.792 882.218667 384 836.010667 384 768s1.792-114.261333 4.053333-145.493333c2.858667-39.765333 31.914667-65.92 71.765334-67.114667 14.293333-0.426667 31.573333-0.725333 52.181333-0.725333 20.650667 0 37.888 0.298667 52.181333 0.725333 39.850667 1.194667 68.906667 27.349333 71.765334 67.114667 2.261333 31.232 4.053333 77.482667 4.053333 145.493333s-1.792 114.218667-4.053333 145.493333c-2.858667 39.765333-31.914667 65.92-71.765334 67.114667-14.293333 0.426667-31.573333 0.725333-52.181333 0.725333-20.650667 0-37.888-0.298667-52.181333-0.725333z" fill="#1877F2" opacity=".32" p-id="32563"></path><path d="M894.293333 258.133333c-2.133333 42.197333-42.24 58.026667-73.301333 29.482667a2386.474667 2386.474667 0 0 1-51.2-48.554667c-45.482667 41.386667-116.053333 105.941333-200.149333 184.021334a53.845333 53.845333 0 0 1-77.269334-4.906667 4914.304 4914.304 0 0 0-115.541333-134.4 1891.584 1891.584 0 0 0-211.114667 180.608 53.333333 53.333333 0 0 1-75.434666-75.392c80.64-80.64 169.088-156.288 263.978666-219.904l0.128-0.085333a53.333333 53.333333 0 0 1 67.328 6.656c41.301333 41.301333 78.592 86.698667 116.394667 131.242666a27211.52 27211.52 0 0 1 156.245333-143.445333A2309.930667 2309.930667 0 0 1 651.093333 117.76c-28.544-31.104-12.714667-71.210667 29.44-73.344 53.845333-2.688 109.056-4.266667 162.176 5.632 23.893333 4.48 41.472 22.058667 45.952 45.952 9.941333 53.162667 8.362667 108.373333 5.632 162.218667z" fill="#1877F2" p-id="32564"></path></svg>