<?xml version="1.0" standalone="no"?><!DOCTYPE svg PUBLIC "-//W3C//DTD SVG 1.1//EN" "http://www.w3.org/Graphics/SVG/1.1/DTD/svg11.dtd"><svg t="1781255718972" class="icon" viewBox="0 0 1025 1024" version="1.1" xmlns="http://www.w3.org/2000/svg" p-id="55444" xmlns:xlink="http://www.w3.org/1999/xlink" width="200.1953125" height="200"><path d="M512 767.9744a44.672 44.672 0 0 0 44.689067-44.689067V561.211733h162.0736c24.704 0 44.6976-20.002133 44.6976-44.689066s-20.002133-44.689067-44.6976-44.689067H556.689067V309.768533c0-24.695467-20.002133-44.731733-44.689067-44.731733s-44.689067 20.036267-44.689067 44.731733v162.056534H305.2288a44.680533 44.680533 0 1 0 0 89.378133h162.0736V723.285333a44.680533 44.680533 0 0 0 44.6976 44.689067zM849.152 353.664c97.664 0 176.836267-79.172267 176.836267-176.836267C1025.979733 79.172267 946.816 0 849.152 0S672.315733 79.172267 672.315733 176.827733c0 97.664 79.163733 176.836267 176.836267 176.836267z m-19.080533-251.0592a20.650667 20.650667 0 0 1 41.2928 0v61.9264h103.2192a20.650667 20.650667 0 0 1 0 41.2928H850.722133a20.650667 20.650667 0 0 1-20.650666-20.642133v-82.577067z" p-id="55445"></path><path d="M964.266667 913.066667a51.2 51.2 0 0 1-51.2 51.2h-802.133334a51.2 51.2 0 0 1-51.2-51.2V110.933333a51.2 51.2 0 0 1 51.2-51.2h557.508267V0H51.2a51.2 51.2 0 0 0-51.2 51.2v921.6a51.2 51.2 0 0 0 51.2 51.2h921.6c28.270933 0 51.2-22.9376 51.2-51.2V365.405867h-59.733333V913.066667z" p-id="55446"></path></svg>