<?xml version="1.0" standalone="no"?><!DOCTYPE svg PUBLIC "-//W3C//DTD SVG 1.1//EN" "http://www.w3.org/Graphics/SVG/1.1/DTD/svg11.dtd"><svg t="1781255895643" class="icon" viewBox="0 0 1024 1024" version="1.1" xmlns="http://www.w3.org/2000/svg" p-id="64576" xmlns:xlink="http://www.w3.org/1999/xlink" width="200" height="200"><path d="M402.976 621.024l381.664 0 0 54.528-381.664 0 0-54.528z" fill="#444444" p-id="64577"></path><path d="M402.976 457.44l381.664 0 0 54.56-381.664 0 0-54.56z" fill="#444444" p-id="64578"></path><path d="M757.344 21.344l-490.656 0c-26.048 0-54.56 26.336-54.56 54.528l0 81.76-136.256 0c-26.464 0-54.528 28.032-54.528 54.496l0 736c0 26.56 26.336 54.56 54.528 54.56l681.472 0c27.296 0 54.56-28.896 54.56-54.56l0-81.76 136.288 0c27.296 0 54.56-27.136 54.56-54.56l0-544.448-245.408-246.048zM757.344 103.104l163.552 163.552-163.552 0 0-163.552zM757.344 948.128l-681.472 0 0-736 136.288 0 0 599.712c0 28.192 28.064 54.56 54.56 54.56l490.624 0 0 81.728zM948.128 811.872l-681.44 0 0-736 436.128 0 0 190.784c0 24.48 25.888 54.528 54.56 54.528l190.784 0 0 490.688z" fill="#444444" p-id="64579"></path></svg>