<?xml version="1.0" standalone="no"?><!DOCTYPE svg PUBLIC "-//W3C//DTD SVG 1.1//EN" "http://www.w3.org/Graphics/SVG/1.1/DTD/svg11.dtd"><svg t="1781255674145" class="icon" viewBox="0 0 1024 1024" version="1.1" xmlns="http://www.w3.org/2000/svg" p-id="53386" xmlns:xlink="http://www.w3.org/1999/xlink" width="200" height="200"><path d="M137.5 373.2L462 530c9.1 4.5 14.8 13.8 14.7 23.9v341.8c0.1 6.9-2.5 13.6-7.3 18.5-4.8 5-11.4 7.8-18.3 7.9-3.8 0-7.5-0.9-10.9-2.5L115.7 762.3c-9-4.5-14.7-13.8-14.7-23.9V397.1c0-14.6 11.5-26.4 25.6-26.4 3.7 0 7.5 0.9 10.9 2.5z" fill="#E5E5E5" p-id="53387"></path><path d="M521.4 105.2l345.2 154.3c9.3 4.4 15.3 13.7 15.4 23.9 0.1 10.3-5.7 19.7-14.9 24.3L522.4 472.8c-6.8 3.3-14.7 3.3-21.5 0L153.2 307c-9.2-4.6-15-14.1-14.9-24.3 0.1-10.3 6.2-19.6 15.5-23.9L501 105.2c6.6-2.9 14-2.9 20.4 0z" fill="#3E91FF" p-id="53388"></path><path d="M920.2 397.2v341.2c0 10.2-5.7 19.6-14.7 23.9L581.6 918.7c-6.2 3-13.3 3.3-19.7 0.9-6.4-2.4-11.6-7.3-14.3-13.6-1.6-3.5-2.4-7.4-2.4-11.3V554c0-10.2 5.7-19.6 14.7-23.9l323.8-156.9c6.2-3 13.3-3.3 19.7-0.9 6.4 2.4 11.6 7.3 14.3 13.6 1.7 3.6 2.5 7.4 2.5 11.3z" fill="#E5E5E5" p-id="53389"></path></svg>