<?xml version="1.0" standalone="no"?><!DOCTYPE svg PUBLIC "-//W3C//DTD SVG 1.1//EN" "http://www.w3.org/Graphics/SVG/1.1/DTD/svg11.dtd"><svg t="1781255129264" class="icon" viewBox="0 0 1024 1024" version="1.1" xmlns="http://www.w3.org/2000/svg" p-id="24150" xmlns:xlink="http://www.w3.org/1999/xlink" width="200" height="200"><path d="M884.192 1002.656l-744.48 0c-37.376 0-67.68-30.336-67.68-67.68l0-744.448c0-37.408 30.304-67.68 67.68-67.68l67.68 0 0 33.824c0 56.064 45.472 101.536 101.536 101.536s101.536-45.472 101.536-101.536l0-33.824 203.072 0 0 33.824c0 56.064 45.472 101.536 101.536 101.536s101.504-45.472 101.504-101.536l0-33.824 67.744 0c37.344 0 67.68 30.272 67.68 67.68l0 744.448c-0.096 37.344-30.432 67.68-67.776 67.68l0 0zM884.192 359.712l-744.48 0 0 575.264 744.48 0 0-575.264zM308.896 528.928l-101.472 0 0-101.536 101.536 0-0.032 101.536zM308.896 698.144l-101.472 0 0-101.536 101.536 0-0.032 101.536zM308.896 867.296l-101.472 0 0-101.504 101.536 0-0.032 101.504zM478.112 528.928l-101.504 0 0-101.536 101.504 0 0 101.536zM478.112 698.144l-101.504 0 0-101.536 101.504 0 0 101.536zM478.112 867.296l-101.504 0 0-101.504 101.504 0 0 101.504zM647.328 528.928l-101.536 0 0-101.536 101.536 0 0 101.536zM647.328 698.144l-101.536 0 0-101.536 101.536 0 0 101.536zM647.328 867.296l-101.536 0 0-101.504 101.536 0 0 101.504zM816.48 528.928l-101.504 0 0-101.536 101.504 0 0 101.536zM816.48 698.144l-101.504 0 0-101.536 101.504 0 0 101.536zM816.48 867.296l-101.504 0 0-101.504 101.504 0 0 101.504zM713.952 224.352c-36.832 0-66.624-29.824-66.624-66.624l0-69.792c0-36.832 29.792-66.624 66.624-66.624 36.8 0 66.624 29.792 66.624 66.624l0 69.792c0 36.768-29.856 66.624-66.624 66.624l0 0zM307.904 224.352c-36.832 0-66.624-29.824-66.624-66.624l0-69.792c0-36.832 29.792-66.624 66.624-66.624s66.624 29.792 66.624 66.624l0 69.792c0 36.768-29.856 66.624-66.624 66.624l0 0z" fill="#444444" p-id="24151"></path></svg>