<?xml version="1.0" standalone="no"?><!DOCTYPE svg PUBLIC "-//W3C//DTD SVG 1.1//EN" "http://www.w3.org/Graphics/SVG/1.1/DTD/svg11.dtd"><svg t="1781255079318" class="icon" viewBox="0 0 1024 1024" version="1.1" xmlns="http://www.w3.org/2000/svg" p-id="19165" xmlns:xlink="http://www.w3.org/1999/xlink" width="200" height="200"><path d="M270.134601 952.640634c-117.666869 0-213.367243-95.649384-213.367243-213.316253V653.966886a42.678248 42.678248 0 0 1 85.357495 0v85.357495a128.155718 128.155718 0 0 0 128.009748 128.009748H753.756421c70.50854 0 128.009748-57.400228 128.009748-128.010748V653.966886a42.653253 42.653253 0 1 1 85.305506 0v85.357495c0 117.666869-95.751363 213.316254-213.316254 213.316253z m224.942869-287.920953c-1.228748-0.562885-2.150559-1.638664-3.328317-2.253538a42.365312 42.365312 0 0 1-10.397868-7.373488l-0.716853-0.511895L295.736351 455.447598a42.681247 42.681247 0 0 1 62.569168-58.065092l110.961245 119.459501V85.037561a42.678248 42.678248 0 0 1 85.357495 0v431.804446l110.908255-119.459501a42.700243 42.700243 0 0 1 62.622157 58.065092L543.2056 654.58076l-0.716853 0.511895a45.190732 45.190732 0 0 1-10.342878 7.373488c-1.228748 0.614874-2.099569 1.689653-3.379307 2.253538a42.491286 42.491286 0 0 1-33.693091 0z" p-id="19166"></path></svg>