<?xml version="1.0" standalone="no"?><!DOCTYPE svg PUBLIC "-//W3C//DTD SVG 1.1//EN" "http://www.w3.org/Graphics/SVG/1.1/DTD/svg11.dtd"><svg t="1781255220108" class="icon" viewBox="0 0 1024 1024" version="1.1" xmlns="http://www.w3.org/2000/svg" p-id="29134" xmlns:xlink="http://www.w3.org/1999/xlink" width="200" height="200"><path d="M794.048 648.224c-33.056 53.472-138.592 92.544-263.648 92.544s-230.56-39.072-263.616-92.544c-7.008-11.328-10.72-5.28-10.72 0.352v78.464c0 75.968 122.88 154.784 274.4 154.784 151.552 0 274.4-78.784 274.4-154.784v-78.464c0-5.568-3.776-11.68-10.784-0.352z m0.448-200.48c-32.512 47.264-138.432 81.92-264.096 81.92-125.6 0-231.552-34.624-264.096-81.92-6.688-9.728-10.304-4.448-10.304-0.032v92.352c0 69.088 122.88 125.088 274.4 125.088 151.552 0 274.4-56.032 274.4-125.088v-92.352c0-4.448-3.552-9.696-10.304 0.032zM530.4 192C378.88 192 256 238.208 256 295.168v49.376c0 60.448 122.88 109.472 274.4 109.472 151.552 0 274.4-49.024 274.4-109.472V295.168C804.8 238.144 681.952 192 530.4 192z" p-id="29135"></path></svg>