<?xml version="1.0" standalone="no"?><!DOCTYPE svg PUBLIC "-//W3C//DTD SVG 1.1//EN" "http://www.w3.org/Graphics/SVG/1.1/DTD/svg11.dtd"><svg t="1781255510003" class="icon" viewBox="0 0 1024 1024" version="1.1" xmlns="http://www.w3.org/2000/svg" p-id="44582" xmlns:xlink="http://www.w3.org/1999/xlink" width="200" height="200"><path d="M164.571429 62.171429h219.428571c54.857143 0 98.742857 43.885714 102.4 102.4v694.857142c0 54.857143-43.885714 98.742857-102.4 102.4h-219.428571c-54.857143 0-98.742857-43.885714-102.4-102.4v-694.857142C65.828571 109.714286 109.714286 65.828571 164.571429 62.171429z m219.428571 841.142857c25.6 0 47.542857-21.942857 47.542857-47.542857v-694.857143c0-25.6-21.942857-43.885714-47.542857-47.542857h-219.428571c-25.6 0-47.542857 21.942857-47.542858 47.542857v694.857143c0 25.6 21.942857 43.885714 47.542858 47.542857h219.428571z" fill="#A0A2AA" p-id="44583"></path><path d="M347.428571 299.885714h-146.285714c-14.628571 0-29.257143-10.971429-29.257143-29.257143s10.971429-29.257143 29.257143-29.257142h146.285714c14.628571 0 29.257143 10.971429 29.257143 29.257142s-14.628571 29.257143-29.257143 29.257143zM347.428571 446.171429h-146.285714c-14.628571 0-29.257143-10.971429-29.257143-29.257143s10.971429-29.257143 29.257143-29.257143h146.285714c14.628571 0 29.257143 10.971429 29.257143 29.257143s-14.628571 29.257143-29.257143 29.257143zM859.684571 961.206857h-219.428571c-54.857143 0-98.742857-43.885714-102.4-102.4v-402.285714c0-54.857143 43.885714-98.742857 102.4-102.4h219.428571c54.857143 0 98.742857 43.885714 102.4 102.4v171.885714c0 14.628571-10.971429 29.257143-29.257142 29.257143s-29.257143-10.971429-29.257143-29.257143v-171.885714c0-25.6-21.942857-43.885714-47.542857-47.542857h-219.428572c-25.6 0-43.885714 21.942857-47.542857 47.542857v402.285714c0 25.6 21.942857 43.885714 47.542857 47.542857h219.428572c25.6 0 43.885714-21.942857 47.542857-47.542857v-18.285714c0-14.628571 10.971429-29.257143 29.257143-29.257143s29.257143 10.971429 29.257142 29.257143v18.285714c-3.657143 54.857143-47.542857 102.4-102.4 102.4z" fill="#A0A2AA" p-id="44584"></path><path d="M932.827429 767.378286c-14.628571 0-29.257143-10.971429-29.257143-29.257143 0-14.628571 10.971429-29.257143 29.257143-29.257143s29.257143 10.971429 29.257142 29.257143c-3.657143 14.628571-14.628571 29.257143-29.257142 29.257143z" fill="#A0A2AA" p-id="44585"></path></svg>