<?xml version="1.0" standalone="no"?><!DOCTYPE svg PUBLIC "-//W3C//DTD SVG 1.1//EN" "http://www.w3.org/Graphics/SVG/1.1/DTD/svg11.dtd"><svg t="1781255053307" class="icon" viewBox="0 0 1024 1024" version="1.1" xmlns="http://www.w3.org/2000/svg" p-id="17188" xmlns:xlink="http://www.w3.org/1999/xlink" width="200" height="200"><path d="M512 1024c283.733333 0 512-228.266667 512-512S795.733333 0 512 0 0 228.266667 0 512s228.266667 512 512 512z m-64-785.066667c0-36.266667 27.733333-64 64-64s64 27.733333 64 64v352c0 36.266667-27.733333 64-64 64s-64-27.733333-64-64V238.933333z m0 546.133334c0-36.266667 27.733333-64 64-64s64 27.733333 64 64-27.733333 64-64 64-64-29.866667-64-64z" fill="#F76260" p-id="17189"></path></svg>