<?xml version="1.0" standalone="no"?><!DOCTYPE svg PUBLIC "-//W3C//DTD SVG 1.1//EN" "http://www.w3.org/Graphics/SVG/1.1/DTD/svg11.dtd"><svg t="1781255647563" class="icon" viewBox="0 0 1039 1024" version="1.1" xmlns="http://www.w3.org/2000/svg" p-id="52710" xmlns:xlink="http://www.w3.org/1999/xlink" width="202.9296875" height="200"><path d="M580.65788 536.368891 664.938606 452.088166C680.415394 436.611378 680.454471 411.416404 664.938785 395.900717 649.45467 380.416603 624.267121 380.385112 608.751336 395.900896L524.470611 480.181622 440.189885 395.900896C424.713097 380.424108 399.518123 380.385031 384.002437 395.900717 368.518323 411.384832 368.486831 436.572381 384.002616 452.088166L468.283341 536.368891 384.002617 620.649615C368.525828 636.126405 368.486751 661.321379 384.002437 676.837065 399.486551 692.321179 424.674101 692.352671 440.189886 676.836885L524.470611 592.556161 608.751336 676.836886C624.228124 692.313674 649.423098 692.352751 664.938785 676.837065 680.422899 661.352951 680.45439 636.165401 664.938606 620.649616L580.65788 536.368891 580.65788 536.368891Z" fill="#E72727" p-id="52711"></path><path d="M125.995364 522.342625 125.995364 522.342625C125.995365 742.079544 304.127334 920.211513 523.864253 920.211514 743.601172 920.211513 921.733141 742.079544 921.733142 522.342625 921.733142 302.605705 743.601173 124.473736 523.864253 124.473736 304.127333 124.473736 125.995364 302.605705 125.995364 522.342625L125.995364 522.342625ZM54.884253 522.342625 54.884253 522.342625C54.884254 263.332122 264.853752 53.362625 523.864253 53.362625 782.874755 53.362625 992.844253 263.332123 992.844253 522.342625 992.844253 781.353126 782.874755 991.322624 523.864253 991.322625 264.853751 991.322624 54.884253 781.353126 54.884253 522.342625L54.884253 522.342625Z" fill="#E72727" p-id="52712"></path></svg>