<?xml version="1.0" standalone="no"?><!DOCTYPE svg PUBLIC "-//W3C//DTD SVG 1.1//EN" "http://www.w3.org/Graphics/SVG/1.1/DTD/svg11.dtd"><svg t="1781255336278" class="icon" viewBox="0 0 1024 1024" version="1.1" xmlns="http://www.w3.org/2000/svg" p-id="36643" xmlns:xlink="http://www.w3.org/1999/xlink" width="200" height="200"><path d="M773.12 238.592H921.6L693.8624 0v156.4672c0 46.2848 34.6112 82.1248 79.2576 82.1248z" fill="#F45151" p-id="36644"></path><path d="M644.3008 156.4672V0H171.4176C126.976 0 92.16 35.84 92.16 82.1248v859.7504c0 46.2848 34.816 82.1248 79.2576 82.1248h670.9248c44.6464 0 79.2576-35.84 79.2576-82.1248v-649.216h-146.0224c-71.8848 0-131.2768-61.6448-131.2768-136.192z" fill="#FF8080" p-id="36645"></path><path d="M296.5504 778.6496h-44.4416V568.32h64.9216c56.9344-0.8192 85.1968 20.8896 85.1968 64.9216-1.4336 40.96-25.8048 62.464-72.704 64.9216h-32.9728v80.4864z m0-175.104v59.1872c2.2528 0 6.7584 0.4096 13.7216 1.2288 30.3104 3.072 45.056-7.168 44.4416-30.72 0-20.48-14.7456-30.3104-44.4416-29.4912-6.9632 0.6144-11.4688 0.6144-13.7216-0.2048zM429.6704 778.6496V568.32h71.68c69.8368 0.8192 105.0624 36.0448 105.6768 105.6768-0.8192 69.8368-36.0448 104.6528-105.6768 104.6528h-71.68z m44.2368-175.104V743.424h23.9616c41.7792 1.4336 62.0544-21.7088 61.44-69.4272 0.8192-47.7184-19.6608-71.2704-61.44-70.4512h-23.9616zM684.4416 778.6496h-44.4416V568.32h135.3728v35.2256h-90.9312v49.9712h85.1968v35.2256h-85.1968v89.9072z" fill="#FFFFFF" p-id="36646"></path></svg>