<?xml version="1.0" standalone="no"?><!DOCTYPE svg PUBLIC "-//W3C//DTD SVG 1.1//EN" "http://www.w3.org/Graphics/SVG/1.1/DTD/svg11.dtd"><svg t="1781255072655" class="icon" viewBox="0 0 1024 1024" version="1.1" xmlns="http://www.w3.org/2000/svg" p-id="18172" xmlns:xlink="http://www.w3.org/1999/xlink" width="200" height="200"><path d="M256 0h512a192 192 0 0 1 192 192v640a192 192 0 0 1-192 192H256a192 192 0 0 1-192-192V192a192 192 0 0 1 192-192z m0 64a128 128 0 0 0-128 128v640a128 128 0 0 0 128 128h512a128 128 0 0 0 128-128V192a128 128 0 0 0-128-128H256z m544 192h-192a32.064 32.064 0 0 1-32-32c0-17.6 14.4-32 32-32h192c17.6 0 32 14.4 32 32s-14.4 32-32 32z m0 192h-192a32.128 32.128 0 0 1-32-32c0-17.6 14.4-32 32-32h192c17.6 0 32 14.4 32 32s-14.4 32-32 32z m0 192h-576a32.128 32.128 0 0 1-32-32c0-17.6 14.4-32 32-32h576c17.6 0 32 14.4 32 32s-14.4 32-32 32z m0 192h-576a32.128 32.128 0 0 1-32-32c0-17.6 14.4-32 32-32h576c17.6 0 32 14.4 32 32s-14.4 32-32 32zM256 192h128a64 64 0 0 1 64 64v128a64 64 0 0 1-64 64H256a64 64 0 0 1-64-64V256a64 64 0 0 1 64-64z m32 64a32 32 0 0 0-32 32v64a32 32 0 0 0 32 32h64a32 32 0 0 0 32-32v-64a32 32 0 0 0-32-32h-64z" fill="#303133" p-id="18173"></path></svg>