<?xml version="1.0" standalone="no"?><!DOCTYPE svg PUBLIC "-//W3C//DTD SVG 1.1//EN" "http://www.w3.org/Graphics/SVG/1.1/DTD/svg11.dtd"><svg t="1781255519884" class="icon" viewBox="0 0 1024 1024" version="1.1" xmlns="http://www.w3.org/2000/svg" p-id="45586" xmlns:xlink="http://www.w3.org/1999/xlink" width="200" height="200"><path d="M270.129213 960.51336c-86.370383 0-156.645167-70.223798-156.645167-156.594182V319.783559c0-86.319397 70.274784-156.594181 156.645167-156.594181h28.504206v-14.250104a99.753724 99.753724 0 0 1 99.641754-99.645753h227.791713a99.764721 99.764721 0 0 1 99.69674 99.645753v14.250104h28.445222c86.421369 0 156.645167 70.275784 156.645167 156.594181V803.919178c0 86.370383-70.223798 156.594181-156.645167 156.594182z m-71.197532-640.724802V803.919178a71.238521 71.238521 0 0 0 71.197532 71.197532h484.079635a71.20553 71.20553 0 0 0 71.197532-71.197532V319.783559a71.227524 71.227524 0 0 0-71.197532-71.144546h-29.87983c-7.02208 48.186824-48.186824 85.396649-98.262132 85.396649H398.275173c-50.079306 0-91.240052-37.213824-98.262131-85.396649h-29.883829a71.260515 71.260515 0 0 0-71.197532 71.144546zM384.02507 148.939274v85.447636a14.318085 14.318085 0 0 0 14.250103 14.252103h227.791713a14.252103 14.252103 0 0 0 14.250104-14.250104v-85.449635a14.285094 14.285094 0 0 0-14.250104-14.249103H398.275173a14.352076 14.352076 0 0 0-14.250103 14.249103z m0 583.781373a42.724318 42.724318 0 0 1 0-85.447636h256.29092a42.724318 42.724318 0 1 1 0 85.447636z m0-170.844285a42.724318 42.724318 0 0 1 0-85.447635h256.29092a42.724318 42.724318 0 1 1 0 85.447635z" p-id="45587"></path></svg>