<?xml version="1.0" standalone="no"?><!DOCTYPE svg PUBLIC "-//W3C//DTD SVG 1.1//EN" "http://www.w3.org/Graphics/SVG/1.1/DTD/svg11.dtd"><svg t="1781255261831" class="icon" viewBox="0 0 1024 1024" version="1.1" xmlns="http://www.w3.org/2000/svg" p-id="31489" xmlns:xlink="http://www.w3.org/1999/xlink" width="200" height="200"><path d="M552.661333 514.730667H353.877333c-7.168 0-12.544 8.96-12.544 15.274666 0 7.168 5.376 15.232 12.544 15.232h167.978667l-81.066667 80.298667-1.024-0.981333-3.413333 12.074666H353.877333c-7.168 0-12.544 8.96-12.544 15.274667 0 7.210667 5.376 15.232 12.544 15.232h73.856l-38.442666 136.32 184.234666-49.109333-47.232-45.866667 47.786667 45.738667 202.325333-208.725334-0.298666 103.594667V844.8c0 29.610667-22.442667 51.2-52.992 51.2H277.802667c-30.549333 0-57.472-21.589333-57.472-51.2V278.272c0-29.610667 19.754667-51.2 60.16-51.2h93.824v-34.986667c0-7.210667 8.96-13.482667 16.128-13.482666 8.106667 0 16.213333 6.272 16.213333 13.482666v34.986667h182.272v-34.986667c0-7.210667 8.96-13.482667 16.170667-13.482666 8.106667 0 16.170667 6.272 16.170666 13.482666v35.029334h102.784c30.549333 0 52.992 21.546667 52.992 51.2v16.042666l-23.338666 22.101334-0.469334-0.426667-200.576 198.698667zM629.76 380.586667H361.301333c-7.210667 0-12.586667 8.96-12.586666 15.274666 0 7.168 5.418667 15.274667 12.586666 15.274667h268.458667c7.168 0 12.544-9.002667 12.544-15.274667s-5.376-15.274667-12.544-15.274666z" fill="#757575" p-id="31490"></path><path d="M778.965333 338.645333l25.258667-25.045333a51.626667 51.626667 0 0 1 71.68-0.938667l10.24 9.813334c20.181333 18.517333 20.650667 49.706667 0.938667 69.162666l-25.173334 24.576-82.944-77.568z m-312.96 311.253334l82.944 77.568-114.304 32 31.36-109.568z m375.253334-213.717334l-272.170667 271.317334-82.901333-77.568 272.128-271.317334 82.944 77.568z" fill="#757575" p-id="31491"></path></svg>