<?xml version="1.0" standalone="no"?><!DOCTYPE svg PUBLIC "-//W3C//DTD SVG 1.1//EN" "http://www.w3.org/Graphics/SVG/1.1/DTD/svg11.dtd"><svg t="1781256145645" class="icon" viewBox="0 0 1024 1024" version="1.1" xmlns="http://www.w3.org/2000/svg" p-id="73394" xmlns:xlink="http://www.w3.org/1999/xlink" width="200" height="200"><path d="M878.933333 904.533333V1024H0V0h878.933333v554.666667c59.733333 51.2 110.933333 110.933333 145.066667 179.2-34.133333 59.733333-85.333333 119.466667-145.066667 170.666666z m0-102.4c17.066667-17.066667 34.133333-42.666667 51.2-68.266666-17.066667-25.6-34.133333-42.666667-51.2-68.266667v136.533333z m0-247.466666V435.2h-85.333333V85.333333H85.333333v853.333334h128v85.333333h657.066667v-119.466667c-76.8 68.266667-170.666667 119.466667-256 119.466667-153.6 0-315.733333-145.066667-401.066667-290.133333 85.333333-145.066667 247.466667-290.133333 401.066667-290.133334 93.866667-8.533333 187.733333 42.666667 264.533333 110.933334z m0 110.933333c-76.8-93.866667-170.666667-145.066667-256-145.066667-102.4 0-221.866667 76.8-307.2 213.333334 85.333333 128 204.8 213.333333 307.2 213.333333 85.333333 0 179.2-51.2 256-145.066667V665.6zM384 281.6V187.733333h307.2v93.866667H384z m-204.8 0V187.733333h128v93.866667H179.2z m0 204.8V384h128v93.866667H179.2z m443.733333 341.333333c59.733333 0 102.4-34.133333 102.4-93.866666 0-59.733333-42.666667-102.4-102.4-102.4S520.533333 682.666667 520.533333 733.866667s42.666667 93.866667 102.4 93.866666z m0 68.266667c-93.866667 0-179.2-76.8-179.2-170.666667s76.8-170.666667 179.2-170.666666 179.2 76.8 179.2 170.666666c-8.533333 102.4-85.333333 170.666667-179.2 170.666667z" opacity=".4" p-id="73395"></path></svg>