<?xml version="1.0" standalone="no"?><!DOCTYPE svg PUBLIC "-//W3C//DTD SVG 1.1//EN" "http://www.w3.org/Graphics/SVG/1.1/DTD/svg11.dtd"><svg t="1781256128549" class="icon" viewBox="0 0 1024 1024" version="1.1" xmlns="http://www.w3.org/2000/svg" p-id="72962" xmlns:xlink="http://www.w3.org/1999/xlink" width="200" height="200"><path d="M382 661H226c-18.196 0-33 14.804-33 33s14.804 33 33 33h156c18.196 0 33-14.804 33-33s-14.804-33-33-33zM798 713h-71V590c0-18.196-14.804-33-33-33s-33 14.804-33 33v148.457C661 760.812 679.188 779 701.543 779H798c18.196 0 33-14.804 33-33s-14.804-33-33-33z" fill="#333333" p-id="72963"></path><path d="M933.218 664.304c-5.44-44.974-23.32-87.275-51.704-122.33C854.489 508.6 819.122 483.17 779 468.213V196.465C779 165.881 754.118 141 723.535 141H623v-19c0-18.196-14.804-33-33-33s-33 14.804-33 33v19H311v-19c0-18.196-14.804-33-33-33s-33 14.804-33 33v19H144.465C113.882 141 89 165.881 89 196.465v631.07C89 858.119 113.882 883 144.465 883h399.364c36.464 28.936 80.312 46.529 126.965 50.916a242.068 242.068 0 0 0 22.717 1.067c64.748-0.003 126.691-26.049 172.688-73.288 51.383-52.773 75.811-124.719 67.019-197.391zM694 869c-94.859 0-175-80.14-175-175s80.141-175 175-175 175 80.14 175 175-80.141 175-175 175zM278 259c18.196 0 33-14.804 33-33v-19h246v19c0 18.196 14.804 33 33 33s33-14.804 33-33v-19h87.391a2.612 2.612 0 0 1 2.609 2.609v244.117c-15.023-1.149-30.303-0.927-45.524 0.666-54.257 5.678-105.476 30.151-144.224 68.91-38.747 38.759-63.205 89.986-68.867 144.245-5.562 53.292 5.467 104.697 31.94 149.454H157.609a2.612 2.612 0 0 1-2.609-2.609V209.609a2.612 2.612 0 0 1 2.609-2.609H245v19c0 18.196 14.804 33 33 33z" fill="#333333" p-id="72964"></path><path d="M193 382c0 18.196 14.804 33 33 33h416c18.196 0 33-14.804 33-33s-14.804-33-33-33H226c-18.196 0-33 14.804-33 33zM434 505H226c-18.196 0-33 14.804-33 33s14.804 33 33 33h208c18.196 0 33-14.804 33-33s-14.804-33-33-33z" fill="#333333" p-id="72965"></path></svg>