<?xml version="1.0" standalone="no"?><!DOCTYPE svg PUBLIC "-//W3C//DTD SVG 1.1//EN" "http://www.w3.org/Graphics/SVG/1.1/DTD/svg11.dtd"><svg t="1781255928865" class="icon" viewBox="0 0 1024 1024" version="1.1" xmlns="http://www.w3.org/2000/svg" p-id="67946" xmlns:xlink="http://www.w3.org/1999/xlink" width="200" height="200"><path d="M854.4 265.6l-304-176c-25.6-12.8-54.4-12.8-80 0L169.6 265.6C144 281.6 128 307.2 128 336v352c0 28.8 16 54.4 41.6 70.4l304 176c12.8 6.4 25.6 9.6 41.6 9.6 12.8 0 28.8-3.2 41.6-9.6l304-176c25.6-12.8 41.6-41.6 41.6-70.4v-352c-6.4-28.8-22.4-54.4-48-70.4z m-32 57.6c6.4 3.2 9.6 9.6 9.6 12.8v332.8l-137.6-73.6v-176c0-3.2 0-6.4-3.2-9.6-3.2-3.2-3.2-6.4-6.4-6.4l-156.8-89.6V150.4l294.4 172.8z m-444.8 268.8v-128l112 64v128l-112-64z m134.4-236.8l112 64-112 64-112-64 112-64z m25.6 169.6l112-64v128l-112 64v-128zM201.6 323.2l294.4-169.6v156.8l-156.8 89.6c-3.2 3.2-6.4 3.2-6.4 6.4-3.2 3.2-3.2 6.4-3.2 9.6v179.2L192 678.4V336c0-6.4 3.2-9.6 9.6-12.8z m320 553.6c-6.4 3.2-12.8 3.2-16 0l-294.4-169.6 137.6-80 156.8 89.6c3.2 3.2 6.4 3.2 9.6 3.2s6.4 0 9.6-3.2l160-92.8 140.8 76.8-304 176z" fill="#2c2c2c" p-id="67947"></path></svg>