<?xml version="1.0" standalone="no"?><!DOCTYPE svg PUBLIC "-//W3C//DTD SVG 1.1//EN" "http://www.w3.org/Graphics/SVG/1.1/DTD/svg11.dtd"><svg t="1781255009186" class="icon" viewBox="0 0 1024 1024" version="1.1" xmlns="http://www.w3.org/2000/svg" p-id="13231" xmlns:xlink="http://www.w3.org/1999/xlink" width="200" height="200"><path d="M307.2 486.4q0 3.754667-0.384 7.509333-0.341333 3.754667-1.109333 7.466667-0.725333 3.712-1.834667 7.338667-1.066667 3.584-2.517333 7.082666-1.450667 3.498667-3.242667 6.826667-1.749333 3.328-3.84 6.442667-2.133333 3.157333-4.522667 6.058666-2.389333 2.901333-5.034666 5.546667-2.688 2.688-5.589334 5.12-2.901333 2.389333-6.058666 4.48-3.114667 2.090667-6.442667 3.84-3.328 1.792-6.826667 3.242667-3.498667 1.450667-7.082666 2.56-3.626667 1.066667-7.338667 1.792-3.712 0.768-7.466667 1.109333-3.754667 0.384-7.509333 0.384t-7.509333-0.384q-3.754667-0.341333-7.466667-1.109333-3.712-0.725333-7.338667-1.834667-3.584-1.066667-7.082666-2.517333-3.498667-1.450667-6.826667-3.242667-3.328-1.749333-6.442667-3.84-3.157333-2.133333-6.058666-4.522667-2.901333-2.389333-5.546667-5.034666-2.688-2.688-5.12-5.589334-2.389333-2.901333-4.48-6.058666-2.090667-3.114667-3.84-6.442667-1.792-3.328-3.242667-6.826667-1.450667-3.498667-2.56-7.082666-1.066667-3.626667-1.792-7.338667-0.768-3.712-1.109333-7.466667-0.384-3.754667-0.384-7.509333t0.384-7.509333q0.341333-3.754667 1.109333-7.466667 0.725333-3.712 1.834667-7.338667 1.066667-3.584 2.517333-7.082666 1.450667-3.498667 3.242667-6.826667 1.749333-3.328 3.84-6.442667 2.133333-3.157333 4.522667-6.058666 2.389333-2.901333 5.034666-5.546667 2.688-2.688 5.589334-5.12 2.901333-2.389333 6.058666-4.48 3.114667-2.090667 6.442667-3.84 3.328-1.792 6.826667-3.242667 3.498667-1.450667 7.082666-2.56 3.626667-1.066667 7.338667-1.792 3.712-0.768 7.466667-1.109333 3.754667-0.384 7.509333-0.384t7.509333 0.384q3.754667 0.341333 7.466667 1.109333 3.712 0.725333 7.338667 1.834667 3.584 1.066667 7.082666 2.517333 3.498667 1.450667 6.826667 3.242667 3.328 1.749333 6.442667 3.84 3.157333 2.133333 6.058666 4.522667 2.901333 2.389333 5.546667 5.034666 2.688 2.688 5.12 5.589334 2.389333 2.901333 4.48 6.058666 2.090667 3.114667 3.84 6.442667 1.792 3.328 3.242667 6.826667 1.450667 3.498667 2.56 7.082666 1.066667 3.626667 1.792 7.338667 0.768 3.712 1.109333 7.466667 0.384 3.754667 0.384 7.509333z m307.2 0q0 3.754667-0.341333 7.509333-0.426667 3.754667-1.109334 7.466667-0.768 3.712-1.834666 7.338667-1.109333 3.584-2.56 7.082666t-3.2 6.826667q-1.792 3.328-3.882667 6.442667-2.133333 3.157333-4.48 6.058666-2.389333 2.901333-5.077333 5.546667-2.645333 2.688-5.546667 5.12-2.986667 2.389333-6.101333 4.48-3.114667 2.090667-6.442667 3.84-3.328 1.792-6.826667 3.242667-3.498667 1.450667-7.082666 2.56-3.626667 1.066667-7.338667 1.792-3.669333 0.768-7.424 1.109333-3.754667 0.384-7.552 0.384-3.754667 0-7.509333-0.384-3.754667-0.341333-7.466667-1.109333-3.712-0.725333-7.296-1.834667-3.626667-1.066667-7.125333-2.517333-3.456-1.450667-6.826667-3.242667-3.285333-1.749333-6.4-3.84-3.157333-2.133333-6.101333-4.522667-2.901333-2.389333-5.546667-5.034666-2.688-2.688-5.12-5.589334-2.346667-2.901333-4.437333-6.058666-2.133333-3.114667-3.882667-6.442667-1.792-3.328-3.242667-6.826667-1.450667-3.498667-2.56-7.082666-1.066667-3.626667-1.792-7.338667-0.725333-3.712-1.109333-7.466667-0.384-3.754667-0.384-7.509333t0.384-7.509333q0.384-3.754667 1.109333-7.466667t1.834667-7.338667q1.066667-3.584 2.56-7.082666 1.408-3.498667 3.2-6.826667 1.749333-3.328 3.84-6.442667 2.133333-3.157333 4.522667-6.058666 2.389333-2.901333 5.034666-5.546667 2.688-2.688 5.589334-5.12 2.944-2.389333 6.058666-4.48 3.157333-2.090667 6.485334-3.84 3.328-1.792 6.826666-3.242667 3.456-1.450667 7.082667-2.56 3.584-1.066667 7.296-1.792 3.712-0.768 7.466667-1.109333 3.754667-0.384 7.509333-0.384 3.797333 0 7.552 0.384 3.754667 0.341333 7.424 1.109333 3.712 0.725333 7.338667 1.834667 3.584 1.066667 7.082666 2.517333 3.498667 1.450667 6.826667 3.242667 3.328 1.749333 6.442667 3.84 3.157333 2.133333 6.058666 4.522667 2.944 2.389333 5.589334 5.034666 2.688 2.688 5.077333 5.589334 2.389333 2.901333 4.48 6.058666 2.090667 3.114667 3.84 6.442667 1.792 3.328 3.242667 6.826667 1.450667 3.498667 2.56 7.082666 1.066667 3.626667 1.834666 7.338667 0.725333 3.712 1.109334 7.466667 0.341333 3.754667 0.341333 7.509333z m307.2 0q0 3.754667-0.341333 7.509333-0.384 3.754667-1.109334 7.466667t-1.834666 7.338667q-1.109333 3.584-2.56 7.082666-1.408 3.498667-3.2 6.826667-1.792 3.328-3.882667 6.442667-2.133333 3.157333-4.48 6.058666-2.389333 2.901333-5.077333 5.546667-2.645333 2.688-5.546667 5.12-2.986667 2.389333-6.101333 4.48-3.114667 2.090667-6.442667 3.84-3.328 1.792-6.826667 3.242667-3.456 1.450667-7.082666 2.56-3.626667 1.066667-7.296 1.792-3.712 0.768-7.466667 1.109333-3.754667 0.384-7.552 0.384-3.754667 0-7.509333-0.384-3.754667-0.341333-7.466667-1.109333-3.669333-0.725333-7.296-1.834667-3.626667-1.066667-7.082667-2.517333-3.498667-1.450667-6.826666-3.242667-3.328-1.749333-6.485334-3.84-3.114667-2.133333-6.016-4.522667-2.944-2.389333-5.589333-5.034666-2.688-2.688-5.077333-5.589334-2.389333-2.901333-4.48-6.058666-2.133333-3.114667-3.882667-6.442667-1.792-3.328-3.242667-6.826667-1.408-3.498667-2.56-7.082666-1.066667-3.626667-1.792-7.338667-0.725333-3.712-1.109333-7.466667Q768 490.154667 768 486.4t0.426667-7.509333q0.341333-3.754667 1.066666-7.466667t1.834667-7.338667q1.109333-3.584 2.56-7.082666 1.408-3.498667 3.2-6.826667 1.792-3.328 3.84-6.442667 2.133333-3.157333 4.522667-6.058666 2.389333-2.901333 5.077333-5.546667 2.645333-2.688 5.546667-5.12 2.944-2.389333 6.058666-4.48 3.157333-2.090667 6.485334-3.84 3.328-1.792 6.826666-3.242667 3.456-1.450667 7.082667-2.56 3.626667-1.066667 7.296-1.792 3.712-0.768 7.466667-1.109333 3.754667-0.384 7.509333-0.384 3.797333 0 7.552 0.384 3.754667 0.341333 7.466667 1.109333 3.669333 0.725333 7.253333 1.834667 3.669333 1.066667 7.125333 2.517333 3.498667 1.450667 6.826667 3.242667 3.328 1.749333 6.442667 3.84 3.157333 2.133333 6.058666 4.522667 2.944 2.389333 5.589334 5.034666 2.688 2.688 5.077333 5.589334 2.389333 2.901333 4.48 6.058666 2.133333 3.114667 3.84 6.442667 1.834667 3.328 3.242667 6.826667 1.450667 3.498667 2.56 7.082666 1.109333 3.626667 1.834666 7.338667 0.725333 3.712 1.109334 7.466667 0.341333 3.754667 0.341333 7.509333z" p-id="13232"></path></svg>