<?xml version="1.0" standalone="no"?><!DOCTYPE svg PUBLIC "-//W3C//DTD SVG 1.1//EN" "http://www.w3.org/Graphics/SVG/1.1/DTD/svg11.dtd"><svg t="1781255882359" class="icon" viewBox="0 0 1024 1024" version="1.1" xmlns="http://www.w3.org/2000/svg" p-id="63587" xmlns:xlink="http://www.w3.org/1999/xlink" width="200" height="200"><path d="M988.842667 528.213333l-8.021334 7.68c-0.142222 0.142222-0.341333 0.170667-0.512 0.284445l-120.746666 109.226666a23.324444 23.324444 0 0 1-32 0l-5.176889-7.651555c-8.817778-8.419556-5.973333-22.129778 2.844444-30.577778l72.931556-65.365333h-353.564445v353.848889l65.564445-72.248889c8.476444-8.846222 22.129778-11.719111 30.606222-2.901334l7.623111 5.176889a23.381333 23.381333 0 0 1 0 32l-111.985778 122.652445-0.341333 0.512-7.68 7.964444a20.906667 20.906667 0 0 1-15.331556 6.627556 21.048889 21.048889 0 0 1-15.36-6.599111l-7.68-7.992889c-0.142222-0.170667-0.170667-0.369778-0.312888-0.512l-109.169778-120.775111a23.324444 23.324444 0 0 1 0-32l7.623111-5.148445c8.419556-8.846222 22.129778-5.973333 30.606222 2.844445l65.365333 72.931555v-356.408889H125.838222l72.903111 65.393778c8.817778 8.448 11.719111 22.158222 2.872889 30.577778l-5.176889 7.623111a23.324444 23.324444 0 0 1-31.971555 0l-120.775111-109.169778c-0.170667-0.142222-0.341333-0.170667-0.512-0.312889l-7.992889-7.68a21.048889 21.048889 0 0 1-6.599111-15.36 20.878222 20.878222 0 0 1 6.599111-15.36l1.422222-1.336889c2.958222-5.006222 7.281778-9.016889 12.515556-11.633777l117.219555-106.979556a23.381333 23.381333 0 0 1 32 0l5.176889 7.623111c8.817778 8.448 5.973333 22.129778-2.872889 30.577778l-72.305778 65.564444H484.124444V125.866667l-65.365333 72.903111c-8.476444 8.817778-22.186667 11.690667-30.606222 2.844444l-7.623111-5.148444a23.324444 23.324444 0 0 1 0-32l109.169778-120.746667c0.142222-0.170667 0.170667-0.369778 0.341333-0.512l7.651555-8.021333a21.048889 21.048889 0 0 1 15.36-6.570667 20.878222 20.878222 0 0 1 15.36 6.570667l1.336889 1.422222c4.977778 2.958222 9.016889 7.310222 11.633778 12.544l107.008 117.191111a23.381333 23.381333 0 0 1 0 32l-7.623111 5.176889c-8.476444 8.817778-22.129778 5.973333-30.606222-2.872889l-65.536-72.277333V481.28h351.032889l-72.305778-65.564444c-8.817778-8.448-11.662222-22.129778-2.844445-30.577778l5.176889-7.623111a23.381333 23.381333 0 0 1 31.971556 0l122.652444 111.957333c0.199111 0.142222 0.369778 0.199111 0.512 0.369778l8.021334 7.651555a20.906667 20.906667 0 0 1 6.570666 15.331556 21.077333 21.077333 0 0 1-6.570666 15.36z" fill="#606266" p-id="63588"></path></svg>