<?xml version="1.0" standalone="no"?><!DOCTYPE svg PUBLIC "-//W3C//DTD SVG 1.1//EN" "http://www.w3.org/Graphics/SVG/1.1/DTD/svg11.dtd"><svg t="1781255557812" class="icon" viewBox="0 0 1024 1024" version="1.1" xmlns="http://www.w3.org/2000/svg" p-id="47804" xmlns:xlink="http://www.w3.org/1999/xlink" width="200" height="200"><path d="M139.946667 128v768a73.386667 73.386667 0 0 0 73.386666 73.386667h256a30.72 30.72 0 1 0 0-61.44h-256a11.946667 11.946667 0 0 1-11.946666-11.946667V128a11.946667 11.946667 0 0 1 11.946666-11.946667h434.312534L822.613333 310.442667v180.224a30.72 30.72 0 1 0 61.44 0V298.666667a30.72 30.72 0 0 0-7.850666-20.548267l-192.034134-213.333333a30.72 30.72 0 0 0-22.8352-10.171734H213.333333A73.386667 73.386667 0 0 0 139.946667 128z" fill="#333333" p-id="47805"></path><path d="M894.122667 658.875733a30.72 30.72 0 0 0-43.246934 4.334934l-172.373333 210.670933-104.174933-86.8352a30.72 30.72 0 0 0-39.3216 47.2064l128 106.666667a30.72 30.72 0 0 0 43.451733-4.130134l192-234.666666a30.72 30.72 0 0 0-4.334933-43.246934zM640 54.613333a30.72 30.72 0 0 1 30.72 30.72v182.613334H853.333333a30.72 30.72 0 1 1 0 61.44h-213.333333a30.72 30.72 0 0 1-30.72-30.72V85.333333a30.72 30.72 0 0 1 30.72-30.72zM276.48 341.333333a30.72 30.72 0 0 1 30.72-30.72h170.666667a30.72 30.72 0 1 1 0 61.44H307.2a30.72 30.72 0 0 1-30.72-30.72z m0 187.733334a30.72 30.72 0 0 1 30.72-30.72h238.933333a30.72 30.72 0 0 1 0 61.44H307.2a30.72 30.72 0 0 1-30.72-30.72z m0 187.733333a30.72 30.72 0 0 1 30.72-30.72h153.6a30.72 30.72 0 0 1 0 61.44H307.2a30.72 30.72 0 0 1-30.72-30.72z" fill="#333333" p-id="47806"></path></svg>