<?xml version="1.0" standalone="no"?><!DOCTYPE svg PUBLIC "-//W3C//DTD SVG 1.1//EN" "http://www.w3.org/Graphics/SVG/1.1/DTD/svg11.dtd"><svg t="1781256169337" class="icon" viewBox="0 0 1024 1024" version="1.1" xmlns="http://www.w3.org/2000/svg" p-id="75259" xmlns:xlink="http://www.w3.org/1999/xlink" width="200" height="200"><path d="M933.61493333 615.2192l-84.65066666-78.6432-14.7456-13.65333333-14.7456 13.65333333-63.35146667 58.9824-232.10666667 216.81493333-4.36906666 4.36906667-1.09226667 6.00746667-31.1296 127.7952 140.35626667-25.66826667 6.5536-1.09226667 4.36906666-4.36906666 232.10666667-216.81493334 63.35146667-58.9824 14.7456-13.65333333-15.29173334-14.7456z m-320.58026666 271.42826667l-68.26666667 12.56106666 13.65333333-63.8976 212.992-198.2464 54.61333334 50.7904-212.992 198.79253334z m242.4832-226.0992l-54.61333334-50.7904 33.31413334-31.1296 54.61333333 50.7904-33.31413333 31.1296z m-27.8528-181.8624V142.26773333S818.3808 75.09333333 755.02933333 75.09333333H74.00106667v695.22773334s9.28426667 56.79786667 97.21173333 57.89013333 267.0592 0 267.0592 0c-10.37653333 1.6384 389.39306667-349.52533333 389.39306667-349.52533333z m-486.05866667-136.53333334h-48.60586667c0-85.74293333 45.32906667-145.8176 145.8176-145.8176 78.09706667 0 120.69546667 50.24426667 120.69546667 122.33386667 0 36.0448-20.20693333 71.54346667-61.16693333 107.58826667-27.30666667 25.12213333-35.49866667 45.8752-35.49866667 61.71306666v48.60586667h-48.60586667v-48.60586667c0-27.8528 7.09973333-52.97493333 45.8752-87.38133333 33.86026667-31.1296 50.7904-58.43626667 50.7904-81.92-1.6384-45.32906667-23.48373333-72.0896-72.63573333-73.728-55.7056 1.6384-95.0272 36.59093333-96.6656 97.21173333z m72.63573333 291.6352v-48.60586666H462.848v48.60586666h-48.60586667z" p-id="75260" fill="#2c2c2c"></path></svg>