<?xml version="1.0" standalone="no"?><!DOCTYPE svg PUBLIC "-//W3C//DTD SVG 1.1//EN" "http://www.w3.org/Graphics/SVG/1.1/DTD/svg11.dtd"><svg t="1781255801995" class="icon" viewBox="0 0 1024 1024" version="1.1" xmlns="http://www.w3.org/2000/svg" p-id="59299" xmlns:xlink="http://www.w3.org/1999/xlink" width="200" height="200"><path d="M512 1024C229.234215 1024 0 794.765785 0 512 0 229.234215 229.234215 0 512 0 794.765785 0 1024 229.234215 1024 512 1024 794.765785 794.765785 1024 512 1024ZM512 275.692308C381.487262 275.692308 275.692308 381.487262 275.692308 512 275.692308 642.512738 381.487262 748.307692 512 748.307692 555.126154 748.307692 595.432369 736.571077 630.232615 716.3904L744.826092 737.492677 689.443446 667.711015C725.976615 626.105108 748.307692 571.722831 748.307692 512 748.307692 381.487262 642.512738 275.692308 512 275.692308ZM555.709046 524.823631C532.952615 539.655877 522.090338 557.457723 523.082831 578.221292 523.082831 583.175877 523.082831 587.114338 523.082831 590.083938L483.036554 590.083938C483.036554 586.145477 483.036554 581.183015 483.036554 575.251692 482.044062 546.587569 494.907077 523.342769 521.601969 505.5488 549.265723 485.777723 562.617108 466.014523 561.640369 446.219815 558.678646 418.556062 542.853908 403.723815 514.181908 401.730954 479.562831 401.730954 457.8304 421.517785 448.929477 461.052062L405.921477 450.670277C417.784123 390.372431 455.829662 361.684677 520.113231 364.654277 574.479754 367.616 604.656246 393.342031 610.587569 441.769354 612.5568 473.426708 594.274462 501.098338 555.709046 524.823631ZM527.533292 673.138215 478.586092 673.138215 478.586092 625.679754 527.533292 625.679754 527.533292 673.138215Z" p-id="59300"></path></svg>