<?xml version="1.0" standalone="no"?><!DOCTYPE svg PUBLIC "-//W3C//DTD SVG 1.1//EN" "http://www.w3.org/Graphics/SVG/1.1/DTD/svg11.dtd"><svg t="1781255904035" class="icon" viewBox="0 0 1024 1024" version="1.1" xmlns="http://www.w3.org/2000/svg" p-id="65192" xmlns:xlink="http://www.w3.org/1999/xlink" width="200" height="200"><path d="M0 512C0 229.23 229.23 0 512 0s512 229.23 512 512-229.23 512-512 512S0 794.77 0 512z m511.777-292.571c-161.481 0.12-292.348 131.063-292.348 292.571 0 161.583 130.989 292.571 292.571 292.571S804.571 673.583 804.571 512h-80.457c0 117.147-94.967 212.112-212.114 212.112s-212.114-94.967-212.114-212.114c0-117.073 94.846-211.993 211.89-212.114v110.005l219.429-146.286-219.428-146.286v102.112z" p-id="65193"></path></svg>