<?xml version="1.0" standalone="no"?><!DOCTYPE svg PUBLIC "-//W3C//DTD SVG 1.1//EN" "http://www.w3.org/Graphics/SVG/1.1/DTD/svg11.dtd"><svg t="1781255033203" class="icon" viewBox="0 0 1024 1024" version="1.1" xmlns="http://www.w3.org/2000/svg" p-id="15205" xmlns:xlink="http://www.w3.org/1999/xlink" width="200" height="200"><path d="M512 1024a512 512 0 1 1 512-512 512 512 0 0 1-512 512z m258.304-674.816a50.112 50.112 0 0 0-71.104 1.664L469.376 592.896 317.12 449.984a50.112 50.112 0 0 0-71.104 2.432 50.752 50.752 0 0 0 2.432 71.488l188.672 177.088a50.112 50.112 0 0 0 70.4-2.048l264.128-278.144a50.752 50.752 0 0 0-1.344-71.616z" fill="" p-id="15206"></path></svg>