<?xml version="1.0" standalone="no"?><!DOCTYPE svg PUBLIC "-//W3C//DTD SVG 1.1//EN" "http://www.w3.org/Graphics/SVG/1.1/DTD/svg11.dtd"><svg t="1781255837468" class="icon" viewBox="0 0 1024 1024" version="1.1" xmlns="http://www.w3.org/2000/svg" p-id="61306" xmlns:xlink="http://www.w3.org/1999/xlink" width="200" height="200"><path d="M508.864 457.216L687.168 960H330.624L508.8 457.216z m0 159.104l-92.48 287.808h185.024L508.864 616.32zM512 64c229.76 0 416 175.104 416 391.04 0 149.76-89.6 279.872-221.12 345.6l-21.12-52.864c109.056-57.28 182.784-166.912 182.784-292.736 0-185.088-159.616-335.168-356.544-335.168-196.928 0-356.544 150.08-356.544 335.168 0 122.816 70.208 230.144 174.912 288.512l-21.184 52.992C181.952 729.664 96 601.792 96 455.04 96 239.104 282.24 64 512 64z m1.28 163.904c139.52 0 252.544 106.304 252.544 237.44 0 82.944-45.184 155.904-113.664 198.4l-21.568-54.144c46.08-33.152 75.84-85.44 75.84-144.256 0-100.288-86.464-181.568-193.152-181.568-106.688 0-193.152 81.28-193.152 181.568 0 54.784 25.792 103.872 66.56 137.152l-21.952 54.912c-63.04-43.136-104.064-113.088-104.064-192 0-131.2 113.088-237.44 252.608-237.44z" fill="#2c2c2c" p-id="61307"></path></svg>