<?xml version="1.0" standalone="no"?><!DOCTYPE svg PUBLIC "-//W3C//DTD SVG 1.1//EN" "http://www.w3.org/Graphics/SVG/1.1/DTD/svg11.dtd"><svg t="1781254865927" class="icon" viewBox="0 0 1024 1024" version="1.1" xmlns="http://www.w3.org/2000/svg" p-id="5011" xmlns:xlink="http://www.w3.org/1999/xlink" width="200" height="200"><path d="M796.603435 729.409273l212.397548 209.005842a51.579519 51.579519 0 0 1 0 72.569696 43.51622 43.51622 0 0 1-61.946618 0l-217.837076-214.381376A445.337311 445.337311 0 0 1 447.961723 895.922807a445.849267 445.849267 0 0 1-316.77248-131.188603A445.849267 445.849267 0 0 1 0.00064 447.961723a445.849267 445.849267 0 0 1 131.188603-316.77248A445.849267 445.849267 0 0 1 447.961723 0.00064a445.849267 445.849267 0 0 1 316.772481 131.188603A445.849267 445.849267 0 0 1 895.922807 447.961723a445.849267 445.849267 0 0 1-99.319372 281.44755zM447.961723 819.129478c204.654221 0 371.167755-166.385545 371.167755-371.167755 0-204.654221-166.385545-371.167755-371.167755-371.167754-204.654221 0-371.167755 166.385545-371.167754 371.167754 0 204.654221 166.385545 371.167755 371.167754 371.167755z" fill="#303133" p-id="5012"></path></svg>