<?xml version="1.0" standalone="no"?><!DOCTYPE svg PUBLIC "-//W3C//DTD SVG 1.1//EN" "http://www.w3.org/Graphics/SVG/1.1/DTD/svg11.dtd"><svg t="1781256242589" class="icon" viewBox="0 0 1024 1024" version="1.1" xmlns="http://www.w3.org/2000/svg" p-id="77451" xmlns:xlink="http://www.w3.org/1999/xlink" width="200" height="200"><path d="M742.4 64h-697.6c-12.8 0-19.2 0-25.6 6.4-12.8 12.8-12.8 38.4 0 51.2l38.4 38.4 313.6 313.6c6.4 6.4 6.4 25.6 0 32l-300.8 300.8-64 64v51.2c0 19.2 19.2 38.4 38.4 38.4h704c19.2 0 32-12.8 32-32v-64c0-19.2-12.8-32-32-32s-38.4 12.8-38.4 32v32h-633.6l345.6-345.6c32-32 32-89.6 0-121.6l-307.2-300.8h595.2v32c0 19.2 12.8 32 32 32s32-12.8 32-32v-64c0-19.2-12.8-32-32-32z" fill="#2c2c2c" p-id="77452"></path><path d="M633.6 544l32 6.4 6.4 6.4c-6.4 32-12.8 51.2-32 64-12.8 19.2-32 25.6-51.2 25.6-32 0-51.2-12.8-70.4-32-12.8-25.6-25.6-57.6-25.6-96 0-44.8 12.8-76.8 25.6-96 19.2-19.2 38.4-32 70.4-32 19.2 0 38.4 6.4 51.2 19.2s25.6 32 25.6 57.6l-6.4 6.4-25.6 6.4-6.4-6.4c0-12.8-6.4-25.6-12.8-32s-19.2-6.4-25.6-6.4c-12.8 0-25.6 6.4-32 19.2-6.4 12.8-12.8 32-12.8 64s6.4 51.2 12.8 64c6.4 12.8 19.2 19.2 32 19.2s19.2-6.4 25.6-12.8c6.4-6.4 12.8-19.2 19.2-44.8-6.4 6.4 0 0 0 0zM761.6 403.2c12.8-6.4 25.6-12.8 38.4-12.8 12.8 0 19.2 0 32 6.4 6.4 6.4 19.2 12.8 25.6 19.2 6.4 6.4 12.8 19.2 12.8 25.6 0 12.8 6.4 25.6 6.4 51.2v140.8l-6.4 6.4h-32l-6.4-6.4v-140.8c0-19.2 0-25.6-6.4-32 0-6.4-6.4-12.8-12.8-12.8-6.4-6.4-12.8-6.4-19.2-6.4-12.8 0-25.6 6.4-32 12.8-6.4 12.8-12.8 25.6-12.8 57.6v128l-6.4 6.4h-32l-6.4-12.8v-230.4l6.4-6.4h32l6.4 6.4v12.8l12.8-12.8zM979.2 569.6v19.2s6.4 6.4 12.8 6.4h12.8l6.4 6.4 6.4 32-6.4 6.4c-6.4 0-19.2 6.4-25.6 6.4-12.8 0-25.6 0-32-6.4l-19.2-19.2c0-6.4-6.4-25.6-6.4-51.2v-128h-19.2l-6.4-6.4v-32l6.4-6.4h19.2v-57.6l44.8-25.6 12.8 6.4v76.8h25.6l6.4 6.4v32l-6.4 6.4h-25.6l-6.4 128z" fill="#2c2c2c" p-id="77453"></path></svg>