<?xml version="1.0" standalone="no"?><!DOCTYPE svg PUBLIC "-//W3C//DTD SVG 1.1//EN" "http://www.w3.org/Graphics/SVG/1.1/DTD/svg11.dtd"><svg t="1781256340213" class="icon" viewBox="0 0 1024 1024" version="1.1" xmlns="http://www.w3.org/2000/svg" p-id="82038" xmlns:xlink="http://www.w3.org/1999/xlink" width="200" height="200"><path d="M886.5 875.1H150c-11.4 0-20.7 10.8-20.7 24.1s9.3 24.1 20.7 24.1h736.5c11.4 0 20.7-10.8 20.7-24.1s-9.2-24.1-20.7-24.1zM129.3 798.3c0 20.4 14.2 37 31.8 37h108.3c17.5 0 31.8-16.6 31.8-37V474.2l-171.8 75.2v248.9zM331.5 787.2c0 26.5 14.2 48.1 31.8 48.1h108.3c17.5 0 31.8-21.6 31.8-48.1V365.7l-171.8 97.7v323.8zM533.7 807.3c0 20.4 14.2 37 31.8 37h108.3c17.5 0 31.8-16.6 31.8-37V483.1l-171.8 75.2v249zM735.9 796.2c0 26.5 14.2 48.1 31.8 48.1H876c17.5 0 31.8-21.6 31.8-48.1V374.7L736 472.4v323.8z" p-id="82039"></path><path d="M147.7 391.2c2.9 0 5.8-0.7 8.6-2.2l324.8-171.6c4-1.9 7.3-0.2 8.8 1 1.6 1.2 4.3 4 4.3 9.2v84.6c0 20 8.6 38.5 22.9 49.5 14.3 11 32.3 12.9 48.1 5l257.2-133.6c10.4-5.4 15.1-19.7 10.5-31.8-4.7-12.2-16.9-17.6-27.4-12.2L548.8 322.5c-4 2-7.3 0.2-8.9-1-1.6-1.2-4.3-4-4.3-9.2v-84.6c0-20-8.6-38.5-22.9-49.5-14.3-11-32.3-12.8-48.1-5l-0.2 0.1-325.2 171.8c-10.4 5.5-15 19.8-10.3 31.9 3.4 8.9 11 14.2 18.8 14.2z" p-id="82040"></path><path d="M905.5 123.3l-150 6.3c-11.4 0.5-20.4 11.7-20 25 0.4 13 9.6 23.2 20.7 23.2h0.8l112.7-4.7-60.1 118.1c-5.8 11.5-2.6 26.2 7.3 33 3.3 2.3 6.9 3.4 10.5 3.4 7.1 0 14-4.2 17.8-11.8l76.5-150.3c0.8-1.6 1.5-3.3 1.9-5 2.2-4 3.4-8.8 3.3-13.9-0.3-13.4-9.9-23.8-21.4-23.3z" p-id="82041"></path></svg>