<?xml version="1.0" standalone="no"?><!DOCTYPE svg PUBLIC "-//W3C//DTD SVG 1.1//EN" "http://www.w3.org/Graphics/SVG/1.1/DTD/svg11.dtd"><svg t="1781255536649" class="icon" viewBox="0 0 1024 1024" version="1.1" xmlns="http://www.w3.org/2000/svg" p-id="46609" xmlns:xlink="http://www.w3.org/1999/xlink" width="200" height="200"><path d="M85.333333 256v512c0 93.866667 76.8 170.666667 170.666667 170.666667h512c93.866667 0 170.666667-76.8 170.666667-170.666667V256c0-93.866667-76.8-170.666667-170.666667-170.666667H256C162.133333 85.333333 85.333333 162.133333 85.333333 256z m85.333334 0c0-46.933333 38.4-85.333333 85.333333-85.333333h512c46.933333 0 85.333333 38.4 85.333333 85.333333v512c0 46.933333-38.4 85.333333-85.333333 85.333333H256c-46.933333 0-85.333333-38.4-85.333333-85.333333V256z" fill="" p-id="46610"></path><path d="M298.666667 597.333333V341.333333H128V298.666667h170.666667V128h42.666666v170.666667h554.666667v42.666666H341.333333v256h554.666667v42.666667H341.333333v256H298.666667v-256H128v-42.666667h170.666667z" fill="" p-id="46611"></path></svg>