<?xml version="1.0" standalone="no"?><!DOCTYPE svg PUBLIC "-//W3C//DTD SVG 1.1//EN" "http://www.w3.org/Graphics/SVG/1.1/DTD/svg11.dtd"><svg t="1781256275343" class="icon" viewBox="0 0 1024 1024" version="1.1" xmlns="http://www.w3.org/2000/svg" p-id="79174" xmlns:xlink="http://www.w3.org/1999/xlink" width="200" height="200"><path d="M298.56 866.016c-17.952 0.032-32.512-13.6-32.544-30.432-0.032-16.832 14.496-30.528 32.416-30.56l555.008-1.024c17.952-0.032 32.512 13.6 32.544 30.432 0.032 16.832-14.496 30.528-32.416 30.56l-555.008 1.024z m124.448-32a30.016 30.016 0 0 1-60.032 0v-384a30.016 30.016 0 0 1 60.032 0v384z m148 0a30.016 30.016 0 0 1-60.032 0V172a30.016 30.016 0 0 1 60.032 0v662.016z m148 0a30.016 30.016 0 0 1-60.032 0v-212.992a30.016 30.016 0 0 1 60.032 0v212.992zM184 830.016a15.008 15.008 0 0 1-30.016 0v-72.992a15.008 15.008 0 0 1 30.016 0v72.992z m34.784 23.616a15.008 15.008 0 0 1-19.584 22.72l-40-34.496a15.008 15.008 0 0 1 19.584-22.72l40 34.496z m253.216-468.64a79.04 79.04 0 1 1-158.016 0 79.04 79.04 0 0 1 158.016 0zM768 543.008a79.04 79.04 0 1 1-158.016 0 79.04 79.04 0 0 1 158.016 0zM620 131.008a79.04 79.04 0 1 1-158.016 0 79.04 79.04 0 0 1 158.016 0zM168 922.016a92 92 0 1 0 0-184 92 92 0 0 0 0 184z m0 52a144 144 0 1 1 0-288 144 144 0 0 1 0 288z m681.376-255.232l142.368 91.808a21.984 21.984 0 0 1 0.064 36.928l-140 91.136a10.016 10.016 0 0 1-15.456-8.256l-2.4-203.104a9.984 9.984 0 0 1 15.424-8.512z" p-id="79175"></path></svg>