<?xml version="1.0" standalone="no"?><!DOCTYPE svg PUBLIC "-//W3C//DTD SVG 1.1//EN" "http://www.w3.org/Graphics/SVG/1.1/DTD/svg11.dtd"><svg t="1781255194404" class="icon" viewBox="0 0 1371 1024" version="1.1" xmlns="http://www.w3.org/2000/svg" p-id="28143" xmlns:xlink="http://www.w3.org/1999/xlink" width="267.7734375" height="200"><path d="M840.386367 1024H681.394352c-11.356573 0-17.034859-5.678286-17.034859-17.034859 0-11.356573 11.356573-17.034859 17.034859-17.034859H1073.196104c136.27887 0 249.844596-96.530867 255.522882-227.13145 5.678286-68.139435-17.034859-130.600584-68.139435-181.705161-39.748004-45.42629-96.530867-73.817721-158.992015-73.817721h-17.034859v-17.034859c5.678286-39.748004 5.678286-79.496008-5.678286-124.922298-28.391431-170.348588-176.026874-300.949172-357.732035-317.984031-119.244012-11.356573-227.131451 22.713145-317.984031 96.530867C329.340603 206.326778 283.914313 302.857644 278.236027 410.745083v11.356573h-11.356572c-136.27887 28.391431-232.809737 153.313729-227.131451 289.592599 5.678286 153.313729 141.957157 272.557741 300.949172 272.557741h85.174294c11.356573 0 17.034859 5.678286 17.034859 17.034859 0 11.356573-5.678286 17.034859-17.034859 17.034859H340.697176c-176.026874 0-329.340603-136.27887-335.01889-306.627459-5.678286-147.635443 96.530867-283.914313 244.16631-317.984031 11.356573-107.887439 62.461149-210.096592 147.635443-283.914313C494.010905 30.299903 613.254917-9.448101 738.177215 1.908472c193.061733 17.034859 352.053749 158.992015 386.123466 346.375462 5.678286 45.42629 11.356573 85.174294 5.678286 119.244012 62.461149 11.356573 119.244012 39.748004 164.670302 85.174294 56.782863 56.782863 79.496008 130.600584 73.817721 204.418305-17.034859 153.313729-141.957157 266.879455-295.270886 266.879455h-232.809737z" fill="" p-id="28144"></path><path d="M681.394352 1024c-11.356573 0-17.034859-5.678286-17.034859-17.034859V490.241091c0-11.356573 5.678286-17.034859 17.034859-17.034859 11.356573 0 17.034859 5.678286 17.034859 17.034859v516.72405c0 11.356573-5.678286 17.034859-17.034859 17.034859z" fill="" p-id="28145"></path><path d="M522.402337 649.233106c-5.678286-5.678286-5.678286-17.034859 0-22.713145l141.957156-141.957156c5.678286-5.678286 17.034859-5.678286 22.713145 0 5.678286 5.678286 5.678286 17.034859 0 22.713145l-141.957156 141.957156c-5.678286 5.678286-11.356573 5.678286-22.713145 0z" fill="" p-id="28146"></path><path d="M670.037779 478.884518c5.678286-5.678286 17.034859-5.678286 22.713146 0l141.957156 141.957157c5.678286 5.678286 5.678286 17.034859 0 22.713145-5.678286 5.678286-17.034859 5.678286-22.713145 0l-141.957157-141.957157c-5.678286-5.678286-5.678286-17.034859 0-22.713145z" fill="" p-id="28147"></path></svg>