<?xml version="1.0" standalone="no"?><!DOCTYPE svg PUBLIC "-//W3C//DTD SVG 1.1//EN" "http://www.w3.org/Graphics/SVG/1.1/DTD/svg11.dtd"><svg t="1781255383750" class="icon" viewBox="0 0 1024 1024" version="1.1" xmlns="http://www.w3.org/2000/svg" p-id="40899" xmlns:xlink="http://www.w3.org/1999/xlink" width="200" height="200"><path d="M512 512m-465.454545 0a465.454545 465.454545 0 1 0 930.90909 0 465.454545 465.454545 0 1 0-930.90909 0Z" fill="#30C361" p-id="40900"></path><path d="M796.718545 326.725818a34.909091 34.909091 0 0 1 2.280728 46.871273l-2.280728 2.490182L492.450909 680.354909a34.909091 34.909091 0 0 1-46.359273 2.676364l-2.490181-2.164364-149.573819-143.685818a34.909091 34.909091 0 0 1 45.847273-52.573091l2.513455 2.210909 124.881454 119.970909L747.357091 326.749091a34.909091 34.909091 0 0 1 46.871273-2.257455l2.490181 2.257455z" fill="#FFFFFF" p-id="40901"></path></svg>