<?xml version="1.0" standalone="no"?><!DOCTYPE svg PUBLIC "-//W3C//DTD SVG 1.1//EN" "http://www.w3.org/Graphics/SVG/1.1/DTD/svg11.dtd"><svg t="1781255085487" class="icon" viewBox="0 0 1024 1024" version="1.1" xmlns="http://www.w3.org/2000/svg" p-id="20161" xmlns:xlink="http://www.w3.org/1999/xlink" width="200" height="200"><path d="M270.792306 966.10499c-117.454302 0-213.074029-95.572747-213.074029-213.078027v-85.193227a42.620603 42.620603 0 1 1 85.240207 0v85.193227a127.979759 127.979759 0 0 0 127.833822 127.834821h482.957536c70.411607 0 127.833822-57.321258 127.833821-127.834821v-85.193227a42.594614 42.594614 0 1 1 85.189229 0v85.193227c0 117.50528-95.568749 213.074029-213.02305 213.074029zM469.65147 639.408006V208.248112L358.844299 327.542619a42.622602 42.622602 0 0 1-62.485029-57.985971L481.00357 70.697484c16.260981-17.334518 46.327003-17.334518 62.485029 0L728.182877 269.556648a42.641594 42.641594 0 0 1-62.536006 57.985971l-110.752195-119.294507v431.159894a42.620603 42.620603 0 0 1-85.240207 0z" p-id="20162"></path></svg>