<?xml version="1.0" standalone="no"?><!DOCTYPE svg PUBLIC "-//W3C//DTD SVG 1.1//EN" "http://www.w3.org/Graphics/SVG/1.1/DTD/svg11.dtd"><svg t="1781255141111" class="icon" viewBox="0 0 1024 1024" version="1.1" xmlns="http://www.w3.org/2000/svg" p-id="25165" xmlns:xlink="http://www.w3.org/1999/xlink" width="200" height="200"><path d="M511.26 651.52c-162.18 0-294.13-131.95-294.13-294.14S349.07 63.26 511.26 63.26 805.39 195.2 805.39 357.39 673.44 651.52 511.26 651.52z m0-513.6c-121.01 0-219.46 98.45-219.46 219.46s98.45 219.47 219.46 219.47 219.47-98.46 219.47-219.47-98.46-219.46-219.47-219.46zM106.05 959.26c-8.37 0-16.79-2.8-23.74-8.54-15.9-13.13-18.16-36.65-5.03-52.55 107.49-130.25 265.89-204.95 434.59-204.95 167.93 0 325.86 74.13 433.3 203.38 13.18 15.85 11.01 39.39-4.85 52.57-15.86 13.17-39.4 11-52.57-4.85-93.21-112.13-230.22-176.44-375.88-176.44-146.34 0-283.76 64.8-377.01 177.81-7.38 8.95-18.05 13.57-28.81 13.57z" p-id="25166"></path></svg>