<?xml version="1.0" standalone="no"?><!DOCTYPE svg PUBLIC "-//W3C//DTD SVG 1.1//EN" "http://www.w3.org/Graphics/SVG/1.1/DTD/svg11.dtd"><svg t="1781262015747" class="icon" viewBox="0 0 1024 1024" version="1.1" xmlns="http://www.w3.org/2000/svg" p-id="96510" xmlns:xlink="http://www.w3.org/1999/xlink" width="200" height="200"><path d="M524.288 887.466667H102.4a34.133333 34.133333 0 0 1-34.133333-34.133334V102.4a34.133333 34.133333 0 0 1 34.133333-34.133333h614.4a34.133333 34.133333 0 0 1 34.133333 34.133333v378.197333a34.133333 34.133333 0 0 0 68.266667 0V102.4a102.4 102.4 0 0 0-102.4-102.4H102.4a102.4 102.4 0 0 0-102.4 102.4v750.933333a102.4 102.4 0 0 0 102.4 102.4h421.888a34.133333 34.133333 0 0 0 0-68.266666z" p-id="96511"></path><path d="M785.066667 546.133333a238.933333 238.933333 0 1 0 238.933333 238.933334 238.933333 238.933333 0 0 0-238.933333-238.933334z m0 409.6a170.666667 170.666667 0 1 1 170.666666-170.666666 170.666667 170.666667 0 0 1-170.666666 170.666666zM614.4 204.8H204.8a34.133333 34.133333 0 0 0 0 68.266667h409.6a34.133333 34.133333 0 0 0 0-68.266667zM648.533333 443.733333a34.133333 34.133333 0 0 0-34.133333-34.133333H204.8a34.133333 34.133333 0 0 0 0 68.266667h409.6a34.133333 34.133333 0 0 0 34.133333-34.133334zM204.8 614.4a34.133333 34.133333 0 0 0 0 68.266667h204.8a34.133333 34.133333 0 1 0 0-68.266667z" p-id="96512"></path><path d="M919.210667 750.933333a34.133333 34.133333 0 0 0-27.648-23.210666l-53.248-7.850667-23.552-48.128a34.133333 34.133333 0 0 0-30.72-18.773333 34.133333 34.133333 0 0 0-30.378667 18.773333l-23.893333 48.128-52.906667 7.850667a34.133333 34.133333 0 0 0-18.773333 58.026666l38.229333 37.546667-9.216 52.565333a34.133333 34.133333 0 0 0 13.653333 34.133334 34.133333 34.133333 0 0 0 36.181334 2.730666L785.066667 887.466667l47.445333 24.917333a34.133333 34.133333 0 0 0 49.493333-36.181333l-8.874666-52.565334L910.336 785.066667a34.133333 34.133333 0 0 0 8.874667-34.133334z m-107.52 35.84a34.133333 34.133333 0 0 0-9.898667 30.378667V819.2h-2.048a34.133333 34.133333 0 0 0-31.744 0h-2.048a34.133333 34.133333 0 0 0-9.898667-30.378667l-1.024-3.754666h2.389334a34.133333 34.133333 0 0 0 25.6-18.432v-2.048 2.048a34.133333 34.133333 0 0 0 25.941333 18.432h2.389333z" p-id="96513"></path></svg>