<?xml version="1.0" standalone="no"?><!DOCTYPE svg PUBLIC "-//W3C//DTD SVG 1.1//EN" "http://www.w3.org/Graphics/SVG/1.1/DTD/svg11.dtd"><svg t="1781262078952" class="icon" viewBox="0 0 1026 1024" version="1.1" xmlns="http://www.w3.org/2000/svg" p-id="98470" xmlns:xlink="http://www.w3.org/1999/xlink" width="200.390625" height="200"><path d="M46.08 541.44h320.64a46.144 46.144 0 0 0 0-92.16H46.08a46.144 46.144 0 0 0 0 92.16z m0 211.2h407.68a46.144 46.144 0 0 0 0-92.16H46.08a46.144 46.144 0 0 0 0 92.16z m465.92 115.84H46.72a45.824 45.824 0 0 0 0 91.52h465.28a45.888 45.888 0 0 0 0-91.52z m232.96-94.72a87.296 87.296 0 0 0-64.64 26.24 95.04 95.04 0 0 0 0 132.48 88.384 88.384 0 0 0 64.64 27.52 93.824 93.824 0 0 0 66.56-26.24 92.16 92.16 0 0 0 26.24-67.2 89.6 89.6 0 0 0-26.24-66.56 91.712 91.712 0 0 0-66.56-26.24z m209.92-644.48A265.344 265.344 0 0 0 766.72 64a279.104 279.104 0 0 0-208.64 77.44 288 288 0 0 0-78.08 214.4h136.32a207.936 207.936 0 0 1 30.08-122.24 126.976 126.976 0 0 1 112-48.64 128.896 128.896 0 0 1 95.36 33.92 145.408 145.408 0 0 1 1.28 183.68l-14.72 17.28A681.92 681.92 0 0 0 700.8 576a270.336 270.336 0 0 0-23.68 120.96v17.28h136.96v-17.28a189.184 189.184 0 0 1 17.92-81.28 165.376 165.376 0 0 1 48-60.16c56.96-51.84 91.52-85.12 102.4-97.28A252.032 252.032 0 0 0 1026.56 306.56a225.024 225.024 0 0 0-71.68-177.28z m0 0" fill="#333333" p-id="98471"></path></svg>