<?xml version="1.0" standalone="no"?><!DOCTYPE svg PUBLIC "-//W3C//DTD SVG 1.1//EN" "http://www.w3.org/Graphics/SVG/1.1/DTD/svg11.dtd"><svg t="1781261909576" class="icon" viewBox="0 0 1024 1024" version="1.1" xmlns="http://www.w3.org/2000/svg" p-id="90319" xmlns:xlink="http://www.w3.org/1999/xlink" width="200" height="200"><path d="M509.28 106.112c-220.576 0-399.968 179.424-399.968 400s179.392 400 399.968 400 400-179.424 400-400-179.424-400-400-400z m274.816 144.192c29.44 31.616 53.824 68.064 71.008 108.32l-71.008-40.992V250.304z m-135.392-93.12a377.056 377.056 0 0 1 111.36 69.568v77.056l-111.36-64.32V157.184z m0 110.016l111.36 64.32v117.888l-57.984-33.504a214.08 214.08 0 0 0-53.376-70.624V267.2z m66.208 183.808l45.184 26.048v117.888l-46.88-27.072c5.952-19.552 9.184-40.32 9.184-61.76 0-19.104-2.752-37.472-7.488-55.104zM225.984 752.512a377.76 377.76 0 0 1-62.816-99.552l62.816 36.256v63.296z m0-91.072l-75.744-43.68a374.496 374.496 0 0 1-16.896-111.616c0-5.376 0.608-10.56 0.768-15.808l91.872 52.928v118.176z m1.536-275.392a11.808 11.808 0 0 0-1.376 5.952h-0.16v123.552l-90.048-51.936C157.088 276.256 316.352 130.112 509.28 130.112c40.32 0 79.008 6.496 115.424 18.24v178.816a211.552 211.552 0 0 0-115.424-34.176 213.184 213.184 0 0 0-195.36 128.32l-70.016-39.744a11.968 11.968 0 0 0-16.384 4.48z m75.872 174.144l-53.44-30.816v-116.736l55.488 31.488a211.2 211.2 0 0 0-9.248 62.016c0.032 18.656 2.656 36.736 7.2 54.048z m57.952 291.488a377.408 377.408 0 0 1-111.36-73.984v-74.688l111.36 64.32v84.352z m0-112.064l-111.36-64.32v-118.24l65.952 38.048c11.2 24.128 26.56 45.824 45.44 64.064v80.448z m-41.12-233.504c0-104.32 84.8-189.12 189.056-189.12 104.32 0 189.12 84.8 189.12 189.12 0 104.256-84.8 189.12-189.12 189.12a189.28 189.28 0 0 1-189.056-189.12z m176.544 212.448v99.264l-111.424-64.32v-74.368a211.04 211.04 0 0 0 111.424 39.424z m12.512 163.552a373.76 373.76 0 0 1-123.936-21.44v-79.488l118.304 68.32a11.936 11.936 0 0 0 16.384-4.384 11.52 11.52 0 0 0 0.736-10.048v-116.448a213.12 213.12 0 0 0 184-127.872l61.312 35.36a11.808 11.808 0 0 0 16.384-4.384 11.456 11.456 0 0 0 1.44-6.016h0.192v-124.8l98.752 56.992c-20.928 187.712-180.384 334.208-373.568 334.208z m274.816-418.848v-117.888l84.128 48.576c11.072 35.424 17.056 73.12 17.056 112.192 0 5.056-0.576 10.048-0.736 15.072l-100.448-57.952z" fill="#4D4D4D" p-id="90320"></path><path d="M657.792 540.512a23.52 23.52 0 0 0-11.488-14.304l-20.32-11.136-0.128-20.448 20.64-12.64a23.584 23.584 0 0 0 7.808-32.576l-28.256-46.368a24.48 24.48 0 0 0-32.672-8l-19.488 11.936-13.952-8.064-0.192-23.616a23.776 23.776 0 0 0-23.808-23.552l-54.016-0.192a25.056 25.056 0 0 0-17.056 7.424 23.552 23.552 0 0 0-7.008 16.992l0.128 23.424-14.944 9.184-20.448-11.328a24.192 24.192 0 0 0-18.176-2.24 23.84 23.84 0 0 0-14.304 11.328l-26.496 47.616a24 24 0 0 0-2.048 17.984 24.192 24.192 0 0 0 11.328 14.24l20.64 11.424 0.192 18.88-20.448 11.808a23.264 23.264 0 0 0-11.136 14.368 23.488 23.488 0 0 0 2.304 17.984l27.008 47.36a24.48 24.48 0 0 0 32.32 8.736l20.384-11.616 15.36 8.864 0.384 24.064c0 6.368 2.56 12.32 7.072 16.64a23.136 23.136 0 0 0 16.736 6.944h0.064l54.688 0.32h0.32c12.736-0.32 23.264-11.872 23.008-25.12l-0.32-23.616 15.072-9.12 20.64 11.328a24 24 0 0 0 18.176 2.112 24.032 24.032 0 0 0 14.304-11.424l26.048-47.552a23.712 23.712 0 0 0 2.08-18.048z m-48.896 53.92l-26.944-14.752a12 12 0 0 0-12 0.256l-26.816 16.32a11.872 11.872 0 0 0-5.76 10.368l-0.064 31.328h-53.44l-0.448-31.136a12 12 0 0 0-6.048-10.24l-27.264-15.616a11.904 11.904 0 0 0-11.904-0.064l-26.048 15.072-27.136-46.752 26.624-15.328a12.032 12.032 0 0 0 6.048-10.56l-0.384-32.928a11.936 11.936 0 0 0-6.176-10.304l-26.624-14.496 26.112-47.36 26.752 14.88a12.096 12.096 0 0 0 12.128-0.32l26.752-16.384a11.936 11.936 0 0 0 5.696-10.304l-0.064-30.496 53.76-0.064 0.256 30.432c0 4.256 2.304 8.192 5.952 10.304l26.048 15.136a12.16 12.16 0 0 0 12.32-0.192l25.248-15.744 28.384 46.112-26.432 16.128a12.032 12.032 0 0 0-5.696 10.368l0.256 34.176a12 12 0 0 0 6.24 10.432l26.432 14.176-25.76 47.552z" fill="#4D4D4D" p-id="90321"></path><path d="M558.208 481.056a54.688 54.688 0 0 0-32.384-26.88 55.552 55.552 0 0 0-68.736 36.064 55.008 55.008 0 0 0 52.448 71.232c24.128 0 45.184-15.488 52.448-38.624 4.352-13.92 2.976-28.8-3.776-41.792z m-11.552 37.056a39.36 39.36 0 0 1-48.64 25.632c-20.512-6.368-32-28.256-25.632-48.736a38.72 38.72 0 0 1 48.672-25.568c9.952 3.136 18.112 9.888 22.944 19.072s5.792 19.68 2.656 29.6z" fill="#4D4D4D" p-id="90322"></path></svg>